<?xml version="1.0" encoding="utf-8" ?>
<svg baseProfile="full" height="300mm" version="1.1" viewBox="0,0,200,300" width="200mm" xmlns="http://www.w3.org/2000/svg" xmlns:ev="http://www.w3.org/2001/xml-events" xmlns:xlink="http://www.w3.org/1999/xlink"><defs /><rect fill="#222222" height="300" width="200" x="0" y="0" /><text fill="#FFFFFF" style="font-size:12px; font-family:Arial; font-weight:bold;" x="10" y="20">Over 10km Workouts</text><text fill="#FFFFFF" style="font-size:4px; font-family:Arial" x="10" y="280">ATHLETE</text><text fill="#FFFFFF" style="font-size:9px; font-family:Arial" x="10" y="290">WeiXU</text><text fill="#FFFFFF" style="font-size:4px; font-family:Arial" x="120" y="280">STATISTICS</text><text fill="#FFFFFF" style="font-size:3px; font-family:Arial" x="120" y="285">Number: 3</text><text fill="#FFFFFF" style="font-size:3px; font-family:Arial" x="120" y="290">Weekly: 1.0</text><text fill="#FFFFFF" style="font-size:3px; font-family:Arial" x="141" y="285">Total: 58.2 km</text><text fill="#FFFFFF" style="font-size:3px; font-family:Arial" x="141" y="290">Avg: 19.4 km</text><text fill="#FFFFFF" style="font-size:3px; font-family:Arial" x="167" y="285">Min: 14.1 km</text><text fill="#FFFFFF" style="font-size:3px; font-family:Arial" x="167" y="290">Max: 22.4 km</text><polyline fill="none" points="37.78322784809279,38.35949918717233 37.603797468327684,38.51672007385787 37.55253164554597,38.710933843620296 37.96265822779969,39.848465716975625 37.58670886076288,40.366363056549744 37.55253164554597,41.476136010438495 37.373101265809964,41.559368593938416 36.97151898732409,41.29117451994534 36.62974683541688,41.22643793511088 36.46740506324568,41.32816683944111 36.38196202527615,41.29117451994534 73.75474683544599,111.64050081283494 36.373417721508304,41.29117451994534 36.52721518985345,41.44839180394047 36.621202531590825,41.95703463435348 36.81772151894984,41.975530699201045 37.159493670857046,42.49341942870524 37.69778481009416,42.70612312105368 37.91139240504708,43.01130606199149 37.83449367087451,43.44595929708885 38.06518987339223,43.88985894939833 38.073734177218284,44.24127841536392 38.33006329109776,44.37074850164208 38.466772151878104,44.34300492275361 38.7743670885975,44.57420122969779 39.13322784806951,44.69442314423941 39.432278480991954,44.89787535767391 39.62879746835097,44.888627536798595 39.765506329073105,45.09207944149239 39.79113924046396,45.52672560870269 40.11582278480637,45.86889282945049 40.42341772149666,45.77641529243556 40.73101265821606,45.79491080517619 40.8506329114025,45.693185451978934 41.012974683515495,45.757919777002826 41.235126582265366,46.72893072287843 41.3718354429875,47.052599400929466 41.62816455695429,46.830655252757424 41.88449367086287,46.43300435801211 42.71329113919637,45.97061804295663 42.926898734120186,45.78566304912965 42.96962025313405,45.61920332615409 43.19177215191303,45.48973450298945 43.31993670880911,45.267787644290365 43.46518987338641,44.786901463179674 43.841139240481425,44.50021845693118 44.32816455693683,45.212300869461615 44.456329113891115,45.924379319556465 44.892088607593905,46.07234317561233 45.04588607593905,46.312784076806565 45.25949367086287,46.39601351428428 45.225316455675056,46.682692273469 45.5072784810327,46.57171992674557 45.49873417720664,46.66419688903261 45.567088607582264,46.8676459708513 45.78069620250608,46.636453807368525 45.87468354424345,46.73817841075652 45.97721518983599,46.636453807368525 46.22499999997672,46.747426097950665 46.472784810117446,46.71968303434551 46.39588607594487,46.51623371730966 46.13955696200719,46.312784076806565 46.04556962024071,45.998361268975714 46.173734177224105,45.78566304912965 46.68639240504126,45.55446893095359 73.75474683544599,111.64050081283494 46.703481012635166,45.58221224717272 73.75474683544599,111.64050081283494 46.703481012635166,45.59146001793124 46.84018987341551,45.52672560870269 47.12215189871495,45.535973383448436 47.079430379730184,45.77641529243556 47.412658227811335,46.06309543961106 47.71170886073378,46.00760900964087 48.2670886075648,46.32203179476346 48.54050632909639,46.220306860574055 49.16424050627393,46.682692273469 49.27531645569252,46.85839829233737 49.241139240475604,47.219057259462716 48.822468354395824,47.28379081263847 48.660126582253724,47.41325782075728 48.617405063298065,47.62595333549689 48.45506329112686,47.57046758312208 48.33544303794042,47.28379081263847 47.99367088606232,47.94961974489706 48.1047468354227,48.18080953617027 48.566139240487246,48.51372210192494 49.206962025287794,48.71716824360192 49.53164556957199,48.61544521318865 49.642721518990584,48.34726592731022 49.975949367071735,48.014352928556036 50.6509493670892,47.940372144548746 50.96708860754734,47.783162836574775 51.069620253139874,47.61670571179275 51.66772151895566,47.35777197617426 51.915506329067284,47.10808537783305 52.385443037957884,46.849150613146776 52.607594936707756,46.673444581596414 52.68449367088033,46.43300435801211 52.82974683542852,46.349774944610544 53.00063291139668,45.915131572881364 53.37658227843349,45.43424782442162 53.863607594917994,45.19380527250905 54.231012658186955,44.62968828123121 54.81202531643794,44.1025603204107 55.11107594933128,43.963842075070716 55.281962025299435,43.98233784979675 55.324683544255095,43.88985894939833 55.4870253164554,43.89910684245115 55.6664556961623,43.72339676023694 14.5,39.94094753851823 55.69208860755316,43.74189256972022 55.82025316453655,43.63091767268634 56.05094936705427,43.63091767268634 56.1363924050529,43.42746344480838 56.40981012658449,43.29799240409193 56.67468354429002,43.31648827507888 57.19588607593323,43.242504775102134 57.460759493667865,43.03904992963362 57.657278480997775,43.020554018548864 57.887974683515495,43.159273286524694 58.0674050632806,43.51069475895929 58.40917721518781,43.80662788189511 58.38354430379695,43.9730899627757 58.46044303794042,44.074816683372774 58.6825949367194,44.130303951431415 58.94746835442493,44.36150064266985 58.956012658192776,44.53720984866959 58.93037974680192,44.611192600066715 59.16107594934874,44.66667963552027 59.289240506332135,44.82389277203765 59.622468354413286,44.72216664694133 60.04113924052217,44.7591579745058 60.468354430340696,44.59269691620284 60.74177215187228,44.92561881626898 61.73291139237699,45.02734477964259 60.767405063292244,44.91637099739455 61.1177215189673,44.79614929138188 61.878164556925185,44.92561881626898 62.17721518984763,44.79614929138188 62.3822784810327,44.85163624666893 62.510443037957884,45.036592590477085 62.73259493667865,44.9626100850146 63.031645569601096,45.04584040065674 63.15981012658449,44.93486663447402 63.347784810117446,44.92561881626898 63.73227848098031,45.119822857952386 63.894620253151515,45.09207944149239 64.21930379743571,45.19380527250905 64.45000000001164,45.119822857952386 64.92848101264099,45.3047788141339 64.98829113924876,45.42500004230533 64.8174050632806,45.45274338661693 65.22753164556343,45.4989822804273 65.85126582277007,45.9058838255296 66.15031645569252,45.924379319556465 66.75696202530526,46.47924289763614 66.91930379741825,46.83990293327952 67.29525316454237,46.89538900239859 73.75474683544599,111.64050081283494 67.2012658227759,46.92313202794321 67.71392405059305,46.96012271929794 67.85917721519945,47.32078139975056 68.14113924046978,47.404010181671765 68.1924050632806,47.51498180669296 68.65379746834515,47.801658059310284 68.96993670883239,47.801658059310284 69.15791139239445,48.06059089682094 69.49968354430166,48.05134330451256 69.72183544299332,47.921876941887604 69.95253164556925,47.93112454355287 70.20031645568088,47.72767715238297 70.79841772149666,47.39476254190231 70.98639240502962,47.39476254190231 71.2256329113734,47.53347706817294 71.78955696203047,47.38551490147802 72.06297468353296,47.41325782075728 72.53291139239445,47.26529551506246 72.81487341769389,47.32078139975056 73.04556962024071,47.219057259462716 73.26772151896148,47.25604786528129 73.61803797463654,47.505734174963436 73.8060126581986,47.496486542549974 73.95981012654374,47.29303846041148 74.293037974654,47.30228610752238 74.6348101265612,47.524229437782196 75.26708860762301,47.68143906381738 75.66012658228283,47.62595333549689 76.09588607592741,47.404010181671765 76.27531645566341,47.47799127570761 76.65126582278754,47.468743641300534 77.14683544303989,47.67219144410046 77.60822784810443,47.69068668285763 77.84746835444821,47.820153279360966 78.04398734174902,47.783162836574775 78.72753164556343,48.106828848402074 78.99240506329807,48.36576106851135 79.44525316453655,48.4397416066131 79.59050632908475,48.54146477665927 79.81265822783462,48.51372210192494 80.14588607591577,48.33801835568738 80.44493670883821,48.35651349823456 80.64145569619723,48.495226982100576 80.8636075949471,48.994594279247394 81.17120253160829,49.24427719715459 81.30791139238863,49.558692030550446 81.5300632911385,49.58643447877694 81.72658227843931,49.84536370549176 82.17088607593905,49.965580668416806 82.55537974683102,50.011817931786936 82.57246835439582,49.947085758401954 82.87151898731827,50.27999372992781 83.06803797464818,50.34472573494713 83.23892405061633,50.751611874075024 73.75474683544599,111.64050081283494 83.23892405061633,50.742364476187504 83.40126582275843,50.714622278508614 83.63196202530526,50.844085816221195 84.01645569616812,50.90881753597205 84.66582278479473,51.26021772911918 85.91329113923712,51.2047335522293 86.08417721517617,51.1215072417981 86.35759493667865,51.22322828050528 86.75917721519363,51.047528253773635 87.13512658225955,51.09376512630115 87.2889240506338,51.13075461228436 87.43417721518199,51.37118601073598 87.68196202532272,51.33419659420906 88.05791139238863,51.463659505257965 88.72436708858004,51.49140154058841 89.0575949367194,51.59312228536146 89.62151898731827,51.935273288196186 90.43322784808697,51.898284034687094 90.62120253161993,52.175703175511444 90.68955696202465,52.11097209642321 90.988607594918,52.19419776349969 91.11677215190139,52.036993680252635 91.6550632911385,52.26817608883721 91.9626582278288,52.29591794978478 92.05664556959528,51.935273288196186 91.9797468353936,51.68559561957227 91.86867088606232,51.611616957547085 73.75474683544599,111.64050081283494 91.87721518985927,51.62086429264309 91.85158227846841,51.39892806609714 92.02246835440747,50.90881753597205 91.93702531643794,50.1042924084104 92.24462025315734,49.087069490837166 92.24462025315734,48.85588133658166 92.42405063289334,48.71716824360192 92.50094936706591,48.19005711915088 92.66329113920801,48.00510533290071 92.80000000001746,48.22704744431394 92.7743670886266,48.643187865862274 92.87689873416093,48.698673153165146 93.0990506329108,48.652435415409855 93.44082278481801,48.36576106851135 93.68006329113268,48.5692074453691 93.85949367086869,48.62469276475895 93.95348101266427,48.84663380173879 93.87658227846259,49.03158437189268 94.0560126581986,49.36449472464301 94.37215189871495,49.67890926273685 95.03860759493546,50.52042672643438 95.10696202531108,51.05677562960045 94.8677215189964,51.574627610512835 94.83354430377949,51.77806888696068 94.92753164554597,51.953767910948955 94.63702531642048,52.323659804751514 94.74810126583907,52.425379888176394 94.85917721517035,52.73053965345753 94.91044303795206,53.15591265790863 95.08132911392022,53.31311536706926 95.13259493670193,53.53504827487632 95.24367088606232,53.56278986130201 95.28639240507619,54.034395910704916 95.4829113924061,54.08063170440437 95.5,54.154608939541504 95.40601265823352,54.635459926088515 95.25221518985927,55.04233242707414 94.91898734177812,55.144050350252655 94.59430379746482,55.54167418371071 94.50886075949529,56.07800204931118 94.51740506329224,56.43863504049659 94.08164556961856,56.70679737540195 93.80822784805787,56.62357464191882 93.78259493666701,56.5126109131088 93.53481012658449,56.771526130716666 93.44082278481801,57.021193880391365 93.45791139241192,57.40956496776198 93.21012658227119,57.59450316674338 92.9367088607396,57.668478371539095 92.80000000001746,58.06609436508734 92.67183544303407,58.36199383798521 92.4325949367194,58.676386278697464 92.6291139240493,58.630152144658496 92.51803797468892,58.77810131484148 92.58639240506454,58.81508858066809 92.89398734178394,58.741114038311935 92.97943037972436,58.889063080292544 93.15031645569252,59.03701195130998 93.38955696200719,59.15722028315213 93.5518987341784,59.37914306083985 93.77405063292827,59.462364003302355 93.74841772153741,59.61031221190933 93.95348101266427,59.74901350226719 93.92784810127341,60.00792217558046 94.00474683544599,60.155869753878505 93.92784810127341,60.017168904232676 93.82531645568088,60.350050690976786 94.15854430379113,60.840125080059806 94.22689873416675,61.274717780557694 93.85949367086869,62.29184386761335 93.39810126580414,62.62471974158689 93.21867088606814,62.615473201200075 93.16740506328642,62.68944550548622 92.05664556959528,63.11478542592522 91.12531645569834,63.37368729456648 91.1680379746831,63.56786335259676 91.05696202529361,63.68806743146706" stroke="#4dd2ff" stroke-linecap="round" stroke-linejoin="round" stroke-width="0.5"><title>2023-04-09 14.1km</title></polyline><polyline fill="none" points="115.47651254397351,43.61594065396639 115.73762479488505,43.359159972693305 116.2954555125907,41.80562896501215 116.80581127561163,40.868368174371426 117.73157289240044,39.50740537849197 117.9333414498833,38.826920084800804 118.08763505262323,38.85259882226819 118.1113725300529,38.76272322490695 128.29475031379843,34.75679344088712 128.50838760996703,34.820991743312334 128.94753094093176,34.6027174207411 129.3866742720129,34.6797554474615 129.9919799444615,34.5 130.2056172406301,34.55135871775565 130.1344048085739,34.92370897909859 130.47859823016915,35.12914327312319 130.9177415611921,35.73260514267895 130.95334777719108,36.09211337059969 131.51117849495495,36.18199031428958 131.9265843486064,36.464460413801135 131.9977967806626,36.631374353091815 132.4606775889988,36.47729995314148 132.75739605596755,36.95236225872941 133.39830794441514,36.70841150317574 133.80184505938087,36.96520176292688 134.4902319025714,37.06791776327009 134.7750816307962,37.23483113759721 135.17861874576192,37.78692810861685 135.2379624391906,38.22346868926252 135.42786225798773,37.87680419787648 135.72458072484005,38.18495044573501 136.24680522666313,38.300505151375546 136.32988639734685,38.557293117948575 136.69781729625538,38.60865066687984 137.2793854913907,38.99383181233134 137.7422662997269,38.87827755608305 138.76297782582697,39.135064690504805 139.64126448787283,38.91679564982769 139.85490178404143,38.08223508896481 140.1634889896377,37.658533616762725 140.6263697979739,37.50446010449377 140.95869448088342,37.64569416247832 141.3741003345349,38.18495044573501 141.82511240424355,38.287665743308025 142.83395519165788,38.326183964672964 143.1306736585684,37.94100137677742 143.85466671775794,38.3647021776851 144.839772027859,38.41605978208827 145.14835923345527,38.24914751363394 145.56376508710673,37.73557032296958 146.0859895888716,38.043716814921936 146.40644553303719,38.300505151375546 146.43018301040865,38.85259882226819 146.8693263414898,38.749883850177866 147.10670111491345,38.955313735234085 147.42715705919545,38.85259882226819 147.81882543547545,39.04518923553405 148.4122623692965,38.91679564982769 149.18373038317077,39.10938599368092 149.9077234424767,39.04518923553405 150.45368542155484,39.199261416331865 151.1539410033729,39.09654664392292 151.4031845155987,39.533084017952206 151.71177172113676,39.75135230415617 152.11530883610249,39.597280600486556 152.37642108701402,39.66147715985426 152.77995820197975,39.90542387476307 153.1478891009465,40.354798528424 153.57516369322548,40.226405885783606 153.81253846670734,40.41899481504515 154.227944320417,40.52170882561768 154.80951251555234,40.354798528424 155.88956773502287,40.38047704586643 156.10320503124967,40.072334592594416 157.17139151203446,39.44320876362326 157.3968975468888,39.45604808842472 158.28705294750398,39.90542387476307 158.70245880121365,39.815548808066524 159.5807454632013,39.52024469869502 159.28402699629078,40.983921140868915 159.54513924720231,41.048117200960405 159.62822041788604,41.66439820222149 159.88933266879758,41.690076531041996 159.94867636216804,41.92118132405449 160.2928697837633,41.93402047046402 160.81509428546997,41.70291569408437 162.26308040390722,41.88266387935437 162.6784862575587,41.690076531041996 162.9989422018407,41.80562896501215 163.27192319137976,41.690076531041996 163.49742922617588,41.75427233691153 163.60424787428929,41.98537704674527 163.87722886382835,42.1394466868951 164.01965372799896,42.781402087857714 163.90096634119982,43.26928664690058 164.07899742131121,43.42335517768515 164.12647237605415,43.87272096547531 164.4231908429647,44.193695834852406 164.4231908429647,44.39911944803316 164.99289029935608,44.514670126489364 165.12344642478274,45.63165615782782 164.8979403899284,46.158049448233214 165.20652759558288,46.68444118484331 165.2183963341522,47.275025186216226 165.5744584944914,47.3648964932072 166.29845155368093,48.03251049891696 166.8206760554458,48.6359286999359 166.891888487502,49.49611707395525 167.48532542126486,50.00966039412015 167.59214406937826,51.10093503988173 168.51790568610886,51.69150441673992 169.30124243866885,51.52460457365669 169.45553604146698,51.71718130179215 169.68104207632132,52.436132583083236 169.69291081494885,52.30774863825354 169.51487973483745,52.48748613514181 169.64543586026412,52.97534414230904 169.5623546895804,54.361880667100195 168.50603694736492,55.50448136977502 167.3547692958382,55.77408271563763 167.91260001366027,56.46734144825314 167.69896271743346,56.81396980425052 167.6040128080058,56.762617497719475 167.5684065920068,57.17343553615501 167.8176501041744,56.64707475397154 167.48532542126486,57.378844200618914 166.48835137247806,58.16196256414696 167.18860695441253,58.893725796981016 167.34290055715246,59.240349438623525 167.2123444317258,59.25318733835593 167.23608190909727,59.53562089850311 166.9987071355572,59.75386470691592 166.5002201111638,59.882243293031934 166.2865828150534,60.35724325849151 165.98986434814287,60.60116166823718 166.08481425757054,60.92210643617727 165.94238939345814,61.38426588779839 166.0729455188848,61.12751078470319 165.79996452928754,61.61534516463871 165.432033630379,61.60250743490178 165.15905264083995,61.87209956572042 164.95728408335708,61.8849372760742 164.39945336559322,62.47547095394111 164.363847149536,62.97613928030478 163.84162264782935,63.20721649553161 163.85349138645688,63.68220760935219 164.44692832027795,64.25989780048258 164.3519784109085,64.27273533903644 164.49440327496268,64.69637359341141 164.13834111468168,65.00447351031471 162.70222373498837,65.13284831869532 162.52419265481876,65.45378493556927 164.5062720136484,69.47186252947722 162.55979887081776,65.5821594207082 162.4292427454493,65.9544449053501 161.83580581157003,66.14700605813414 162.0375743690529,66.32672961331264 162.6428800415597,66.39091655339871 162.98707346315496,66.71185090768267 163.2481857140083,66.75036299141357 164.19768480811035,70.51166979176924 163.2481857140083,66.78887506683532 164.38758462690748,44.06530595642107 163.2837919300655,66.78887506683532 162.97520472446922,66.72468826986733 162.90399229247123,67.17399536387529 163.41434805555036,68.29083952534711 163.0701546338969,68.85567758938123 163.40247931680642,69.1124215729651 163.66359156765975,69.13809595099883 163.8297539090854,69.35632801525935 163.88909760251408,70.33195045110187 163.2481857140083,70.85827086630161 162.98707346315496,71.83388509193901 162.45298022276256,72.69396163108468 162.38176779070636,73.3614808646671 162.59540508687496,73.97765024914406 162.0019681530539,74.78636933841335 161.6459059928311,75.82614564077812 160.69640689872904,76.14706302950799 160.58958825061563,76.5963464044471 160.3284759998205,76.84024262016464 159.84185771405464,76.99428216366505 159.2958957349765,77.34087065055792 158.25144673150498,77.57192926797143 158.37013411830412,77.73880475011538 157.81230340048205,77.76447788738005 157.62240358174313,78.04688215347414 157.38502880820306,78.07255524644279 157.3612913308316,78.40630511876952 157.77669718448306,78.65019886168011 158.04967817402212,78.53467028815066 158.14462808339158,78.77856385568157 158.0734156513936,79.24067706988717 158.47695276635932,79.343368732807 158.23957799281925,79.67711622941715 158.40574033436133,80.3061002001341 158.69059006252792,80.81955485997605 158.69059006252792,81.26882647597813 158.92796483600978,81.73093324445654 159.46205807646038,81.74376952648163 159.4383205990889,82.16736631645472 160.06736374890897,82.69365183732589 160.26913230639184,83.19426345419197 160.49463834124617,83.11724637371663 160.62519446667284,82.92470352721284 161.72898716345662,82.98888449912192 162.22747418796644,82.7449966831482 162.6784862575587,82.78350530780153 163.0345484178979,83.00172069073597 163.43808553286362,82.80917771965323 163.6398540903465,82.44976361808949 164.00778498925501,82.35990997965564 164.04339120531222,82.15453006484313 164.28076597879408,82.12885755889874 164.32824093353702,81.94914991380938 164.87420291261515,81.53838890293264 164.94541534461314,81.12762694706907 165.24213381152367,80.93508195489994 165.30147750495235,80.26759104111989 165.83557074534474,80.22908187379653 166.17976416694,79.81831690552644 167.16486947704107,79.75413479388226 167.18860695441253,79.39471454214072 167.3903755118954,79.20216768106911 168.30426838988205,79.24067706988717 168.37548082199646,79.52307900082087 168.66033055016305,79.60009763173002 168.82649289164692,80.12639072033926 169.01639271044405,80.2932638147322 169.43179856415372,79.72846194273734 169.71664829232031,80.15206351422239 169.7522545083193,80.58850044576684 169.88281063380418,80.63984589700704 170.45251009019557,80.78104581168736 170.98660333064618,80.74253675513319 170.98660333064618,81.3586806635285 171.15276567213004,81.53838890293264 171.9598399020615,83.3739698460704 171.9242336860043,83.60502065556648 172.22095215291483,84.58056522178231 172.2446896302863,84.7602702184231 172.48206440376816,85.17102381735458 172.2090834142291,85.6331204867165 172.3159020623425,86.09521596021659 172.07852728880243,86.51880242713378 172.16160845954437,86.8011928468477 172.41085197171196,87.01940331984952 172.48206440376816,87.3916440995963 172.22095215291483,88.7265701701981 172.76691413199296,88.93194252610556 172.96868268947583,89.15015039550781 173.0636325989035,89.53522245580098 173.03989512153203,89.90745799153228 173.37221980444156,89.90745799153228 173.7401507034083,90.15133602528658 173.9537879995769,90.94714624002518 173.8113631354645,91.11400922243774 174.0606066476903,91.47340588578663 174.0250004316331,91.92265069796122 174.1674252957455,91.96115734356863 174.15555655705975,92.9879981639533 174.35732511454262,93.23187199125823 174.5234874560265,93.24470744663267 174.45227502391208,93.46291004680097 173.97752547689015,93.45007460709894 173.96565673826262,93.57842896248621 173.50277592986822,93.50141636034823 173.3840885431855,93.66827695637767 173.01615764421877,93.55275809879822 172.50580188113963,93.93782066690619 172.29216458497103,93.74528948660009 172.07852728880243,94.3228824048565 171.61564648046624,94.52824832564511 171.55630278709577,94.74644935782999 171.30705927486997,94.7079433126928 171.12902819475858,94.99032078418531 170.58306621562224,94.8876381189184 170.40503513551084,95.14434467139654 170.12018540728604,95.17001530635753 170.12018540728604,95.67059195062029 170.3931663968251,96.2866843562224 170.2507415327127,96.51771846049814 170.19139783940045,97.24932448603795 169.81159820174798,97.49319249534165 169.58609216689365,97.80123582071974 169.84720441774698,98.45582612344879 170.0014980205451,98.53283658959845 169.74038576969178,99.09757899363467 168.2449246965698,100.23989339864056 167.86512505891733,99.79066950402921 167.62775028537726,99.68798959809646 167.48532542126486,99.75216454622569 167.54466911463533,100.81746531759563 167.37850677320966,101.13833779907145 167.54466911463533,101.56188859220129 167.20047569304006,101.83142039226368 166.8206760554458,102.02394285767514 166.55956380453426,102.25496954229311 166.34592650842387,102.56300465708773 166.61890749796294,102.88387400361535 166.73759488464566,103.56411511242914 166.98683839687146,103.56411511242914 167.7108314561192,104.0133295191772 168.1024998323992,104.50104673914029 168.07876235502772,106.10537030751584 168.11436857114313,106.88827497902093 168.18558100314112,107.19630210619653 167.84138758160407,107.87652679774328 167.61588154669153,108.82627014876925 166.9631009195,109.44231719106028 166.86815101013053,109.72467137567583 166.86815101013053,110.21237300746725 167.43785046663834,110.73857590692933 167.3903755118954,110.86691784250434 166.72572614607634,111.20060644364276 165.98986434814287,112.00915700869518 165.467639846378,112.80486986646429 165.075971470098,113.57491119447513 164.54187822970562,115.33315979078179 164.09086615999695,115.5" stroke="#ff1500" stroke-linecap="round" stroke-linejoin="round" stroke-width="0.5"><title>2023-03-12 21.7km</title></polyline><polyline fill="none" points="14.5,202.56299221682275 14.927647882752353,202.78027260331146 15.372750781127252,203.75330642297922 16.21059153106762,204.4429279457254 17.03097726535634,204.82080120894534 17.54590022622142,204.95305659286532 17.781542937183985,204.8302480265047 18.41865100740688,205.1797797966865 18.7939338433207,204.73577981998824 19.22158172610216,204.5468432020425 19.911054843192687,204.82080120894534 20.05942247598432,204.38624686197 22.241299428918865,203.98947858719475 22.887135006982135,203.696625040051 24.370811334985774,203.97058482978173 25.147559530189028,204.38624686197 25.199924577056663,204.63186471394147 25.409384764556307,204.80190757172386 25.898125202016672,205.00973743071518 27.006518694077386,204.8302480265047 27.407984053425025,205.05697144345322 27.853086951829027,205.5859912196247 28.85675035015447,205.88828727286455 29.284398232906824,205.7749263348669 29.589861006330466,205.85994704760378 30.09605645944248,205.52931063176948 30.89898717807955,205.51041709702986 32.243023381073726,205.07586504377832 32.46121107638464,205.22701374795724 32.277933412318816,205.5670976930778 34.1281650683959,207.720942123 35.227831052674446,209.98810843208048 36.76387242754572,210.94219582781807 36.96460510720499,211.31060394822998 38.011906044586794,211.74513526817464 39.338487231958425,211.74513526817464 40.21996552095516,211.50897712135338 42.43675250513479,211.25392584345536 43.213500700338045,211.00832043874834 58.05026398014161,215.31579444663657 60.36305355024524,215.39136289899034 62.54493050312158,216.37374880418065 75.57509966599173,212.3969295392235 75.65364723626408,212.27412796856515 75.5227346191241,212.23634284669242 76.21220773621462,212.12298741551785 79.7206658764917,208.79785102438473 79.66830082962406,208.68449261061323 80.13958625146188,208.24995111343742 92.9515677189629,200.10675401783374 94.85416442190763,201.15538443717378 95.5,200.77750057155208 90.61259562545456,202.44018140372646 85.31499838377931,205.0191842346103 85.1928132744215,204.85858847514464 79.39774808747461,208.79785102438473 78.21080702508334,209.04346058356168 78.22826204070589,208.91120933982165 70.91461049453937,214.9190593549647 70.77497036958812,214.85293672258558 63.58350393275032,217.76230090441823 58.04153647230123,217.88509731908562 58.146266566065606,217.90398906494374 55.83347699599108,225.55492171832884 55.7636569335009,225.49824978887045 38.8061092554708,233.5926416479124 38.867201810120605,233.6776442722621 33.255414287239546,236.6149232513926 33.159411701286444,236.72825745340378 33.194321732531535,239.79768809126108 33.499784505955176,239.59935782595858 33.840157310594805,239.9771295008468 33.9361598965188,241.242656665534 33.7790647559159,241.89430393960356 29.16221312354901,246.50296305469237 28.1149121861381,248.58058417915163 28.31564486582647,248.8261190423509 18.24410085118143,249.89324598216626" stroke="#ff0000" stroke-linecap="round" stroke-linejoin="round" stroke-width="0.5"><title>2022-01-02 22.4km</title></polyline></svg>