<?xml version="1.0" encoding="utf-8" ?>
<svg baseProfile="full" height="300mm" version="1.1" viewBox="0,0,200,300" width="200mm" xmlns="http://www.w3.org/2000/svg" xmlns:ev="http://www.w3.org/2001/xml-events" xmlns:xlink="http://www.w3.org/1999/xlink"><defs /><rect fill="#222222" height="300" width="200" x="0" y="0" /><text fill="#FFFFFF" style="font-size:12px; font-family:Arial; font-weight:bold;" x="10" y="20">Over 10km Workouts</text><text fill="#FFFFFF" style="font-size:4px; font-family:Arial" x="10" y="280">ATHLETE</text><text fill="#FFFFFF" style="font-size:9px; font-family:Arial" x="10" y="290">WeiXU</text><text fill="#FFFFFF" style="font-size:4px; font-family:Arial" x="120" y="280">STATISTICS</text><text fill="#FFFFFF" style="font-size:3px; font-family:Arial" x="120" y="285">Number: 2</text><text fill="#FFFFFF" style="font-size:3px; font-family:Arial" x="120" y="290">Weekly: 1.0</text><text fill="#FFFFFF" style="font-size:3px; font-family:Arial" x="141" y="285">Total: 44.1 km</text><text fill="#FFFFFF" style="font-size:3px; font-family:Arial" x="141" y="290">Avg: 22.0 km</text><text fill="#FFFFFF" style="font-size:3px; font-family:Arial" x="167" y="285">Min: 21.7 km</text><text fill="#FFFFFF" style="font-size:3px; font-family:Arial" x="167" y="290">Max: 22.4 km</text><polyline fill="none" points="60.635350058670156,48.154587538621854 60.9834997265134,47.81221329692926 61.727274016826414,45.7408386200259 62.40774836757919,44.49115756583342 63.64209718990605,42.67654050466081 63.91112193319714,41.769226779739256 64.11684673686977,41.80346509636729 64.1484967067372,41.68363096653775 77.72633375180885,36.34239125451131 78.01118347997544,36.42798899108311 78.59670792130055,36.136956560992985 79.18223236274207,36.23967392994382 79.98930659267353,36.0 80.27415632084012,36.06847829034086 80.17920641141245,36.56494530547934 80.63813097355887,36.83885769749759 81.22365541494219,37.64347352358163 81.27113036962692,38.122817827461404 82.01490465999814,38.242653752386104 82.56877913151402,38.619280551734846 82.66372904088348,38.841832470789086 83.28090345207602,38.636399937517126 83.6765280746622,39.269816344982246 84.53107725927839,38.944548670900986 85.06912674591877,39.28693568390736 85.9869758701534,39.423890351026785 86.36677550774766,39.64644151680113 86.90482499438804,40.38257081148913 86.9839499189402,40.96462491902639 87.23714967735577,40.50240559717349 87.63277429988375,40.91326726098487 88.32907363557024,41.06734020182921 88.43984852981521,41.40972415727447 88.93042306171264,41.47820088917797 89.70584732189309,41.99177574978967 90.32302173296921,41.83770340812043 91.68397043453297,42.180086253996706 92.85501931718318,41.88906086643692 93.13986904540798,40.77631345196278 93.55131865286967,40.21137815568363 94.168493064004,40.0059468059917 94.6115926411585,40.194258883289876 95.16546711273259,40.91326726098487 95.76681653904961,41.05022099107737 97.11194025562145,41.1015786195494 97.50756487809122,40.58800183569838 98.47288895706879,41.15293623690377 99.7863627038314,41.22141304278921 100.19781231129309,40.998863351516775 100.75168678280897,40.31409376396914 101.44798611849546,40.7249557532341 101.87526071077446,41.06734020182921 101.90691068058368,41.80346509636729 102.4924351220252,41.666511800227454 102.8089348199428,41.940418313635746 103.23620941228,41.80346509636729 103.75843391404487,42.060252314055106 104.54968315910082,41.88906086643692 105.57830717763864,42.14584799158911 106.54363125661621,42.060252314055106 107.27158056211192,42.26568188844249 108.20525467122206,42.12872885855904 108.5375793541316,42.71077869061264 108.94902896159329,43.00180307221308 109.48707844823366,42.796374133977224 109.8352281160769,42.881969546477194 110.37327760265907,43.20723183301743 110.86385213461472,43.806398037908366 111.43355159100611,43.635207847721176 111.75005128904013,43.89199308672687 112.30392576061422,44.02894510081387 113.07935002073646,43.806398037908366 114.51942364673596,43.84063606115524 114.80427337501897,43.429779456797405 116.22852201602655,42.59094501816435 116.52919672918506,42.60806411789963 117.71607059676899,43.20723183301743 118.26994506834308,43.087398410760215 119.44099395099329,42.69365959826973 119.0453693284071,44.64522818781552 119.39351899630856,44.730822934623575 119.50429389061173,45.55253093630017 119.85244355845498,45.586768708060845 119.93156848289073,45.8949084320775 120.39049304503715,45.91202729396173 121.08679238060722,45.60388759210764 123.01744053862058,45.84355183914886 123.57131501013646,45.586768708060845 123.99858960247366,45.7408386200259 124.36256425525062,45.586768708060845 124.66323896829272,45.67236311589659 124.80566383246332,45.98050272898399 125.16963848518208,46.18592891586013 125.35953830403741,47.04186945047695 125.20128845493309,47.69238219586259 125.43866322847316,47.897806903580204 125.50196316814981,48.49696128729556 125.89758779061958,48.92492777979351 125.89758779061958,49.19882593071088 126.65718706586631,49.35289350198582 126.83126189978793,50.842208210451645 126.53058718662942,51.54406593096792 126.94203679414932,52.24592157978623 126.95786177896662,53.033366914940416 127.43261132604675,53.153195324281114 128.3979354049079,54.04334733188443 129.0942347406526,54.84790493323817 129.18918465008028,55.99482276526396 129.98043389501981,56.679547192150494 130.12285875919042,58.134580053185346 131.3572075815173,58.92200588899141 132.4016565849306,58.699472764885286 132.60738138866145,58.95624173572287 132.90805610181997,59.91484344411583 132.92388108669547,59.74366485100472 132.6865063130972,59.983314846860594 132.86058114701882,60.633792189735686 132.74980625277385,62.48250755612389 131.34138259658357,64.00597515970003 129.8063590611564,64.36544362085988 130.55013335158583,65.28978859767085 130.26528362330282,65.75195973900554 130.13868374406593,65.68348999695445 130.0912087894394,66.23124738155457 130.42353347223252,65.52943300530023 129.98043389501981,66.50512560081552 128.6511351633817,67.54928341886261 129.58480927255005,68.52496772930317 129.79053407622268,68.98713258483622 129.61645924235927,69.00424978448427 129.6481092121685,69.38082786466111 129.33160951413447,69.67181960921152 128.6669601482572,69.84299105739046 128.3821104200906,70.4763243446505 127.98648579756264,70.80154889098776 128.11308567679953,71.22947524824122 127.92318585794419,71.845687850393 128.0972606918658,71.50334771293274 127.73328603914706,72.15379355284676 127.24271150719142,72.13667657985934 126.87873685447266,72.49613275429874 126.60971211118158,72.51324970144196 125.86593782081036,73.30062793858815 125.81846286612563,73.96818570708274 125.12216353043914,74.27628866070881 125.13798851537285,74.90961014579807 125.9292377604288,75.67986373398162 125.80263788119191,75.69698045204859 125.99253769998904,76.26183145787218 125.51778815296711,76.67263134708628 123.60296498000389,76.84379775825073 123.36559020646382,77.27171324742085 126.00836268486455,82.62915003929811 123.41306516114855,77.44287922760122 123.23899032728514,77.93925987379043 122.44774108217098,78.19600807751704 122.71676582546206,78.4356394844217 123.52384005545173,78.52122207121283 123.98276461753994,78.9491345435672 124.33091428538319,79.00048398855142 125.59691307751928,84.01555972236383 124.33091428538319,79.05183342243254 125.85011283593485,48.753741275242646 124.37838924012613,79.05183342243254 123.96693963266443,78.96625102648977 123.87198972329497,79.56532715182402 124.55246407404775,81.05445270046766 124.09353951190133,81.80757011918467 124.53663908911403,82.14989543061529 124.88478875689907,82.18412793466996 125.10633854550542,82.47510402034095 125.18546347005758,83.77593393479765 124.33091428538319,84.477694488407 123.98276461753994,85.77851345592353 123.27064029703615,86.92528217477957 123.17569038760848,87.81530781956099 123.46054011589149,88.63686699885875 122.66929087077733,89.71515911788447 122.1945413237554,91.1015275210375 120.92854253167752,91.52941737267247 120.78611766756512,92.12846187260584 120.43796799978008,92.4536568268959 119.78914361877833,92.65904288488673 119.06119431334082,93.12116086742026 117.66859564202605,93.42923902395705 117.82684549113037,93.6517396668205 117.08307120070094,93.68597051651159 116.82987144234357,94.06250953796552 116.51337174430955,94.09674032859039 116.48172177450033,94.54174015835451 117.03559624601621,94.86693181557348 117.39957089873496,94.71289371754392 117.52617077791365,95.03808514089906 117.43122086854419,95.6542360931926 117.96927035518456,95.79115831041418 117.65277065715054,96.2361549725465 117.8743204458151,97.07480026684061 118.25412008335115,97.75940647996322 118.25412008335115,98.35843530131388 118.57061978138518,98.97457765927538 119.28274410200538,98.99169270198036 119.25109413213795,99.55648842193477 120.08981833193684,100.25820244976785 120.35884307522792,100.92568460559414 120.65951778838644,100.8229951649555 120.83359262224985,100.56627136960742 122.30531621800037,100.65184599881468 122.96996558393585,100.32666224420245 123.57131501013646,100.37800707707356 124.0460645572166,100.66896092098614 124.58411404385697,100.4122369595425 124.85313878714805,99.9330181574478 125.34371331904549,99.81321330621722 125.39118827378843,99.53937341978599 125.70768797182245,99.50514341187954 125.7709879114409,99.2655332184222 126.4989372168784,98.7178518705623 126.59388712618966,98.17016926276847 126.98951174877584,97.9134426065284 127.068636673328,97.02345472149318 127.78076099383179,96.97210916507174 128.2396855559782,96.42442254070193 129.55315930279903,96.33884639185271 129.58480927255005,95.85961938952096 129.85383401584113,95.60289024141093 131.07235785323428,95.6542360931926 131.16730776266195,96.0307720011042 131.5471074002562,96.13346350897336 131.76865718886256,96.83518762710446 132.02185694733635,97.05768508631445 132.57573141891044,96.30461592365464 132.9555310564465,96.86941801896319 133.00300601113122,97.45133392768912 133.17708084511105,97.51979452934756 133.93668012035778,97.70806108225952 134.64880444091978,97.65671567351092 134.64880444091978,98.47824088469497 134.87035422952613,98.7178518705623 135.94645320274867,101.16529312809871 135.89897824806394,101.47336087409349 136.29460287059192,102.77408696238126 136.32625284040114,103.01369362455443 136.64275253843516,103.56136508980126 136.2787778856582,104.17749398229353 136.4212027498288,104.79362128028879 136.1047030517948,105.35840323618322 136.21547794609796,105.73492379579693 136.5478026290075,106.02587109313754 136.64275253843516,106.52219213280478 136.29460287059192,108.30209356026899 137.02255217602942,108.5759233681456 137.2915769193205,108.86686719401041 137.4181767986156,109.38029660773464 137.38652682874817,109.87661065538123 137.82962640596088,109.87661065538123 138.32020093785832,110.20178136703908 138.60505066614132,111.2628616533766 138.415150847286,111.48534562991699 138.74747553025372,111.96454118104884 138.700000575569,112.56353426395799 138.88990039442433,112.61487645810121 138.8740754094324,113.9839975519426 139.1431001527817,114.30916265501583 139.36464994138805,114.32627659551508 139.26970003196038,114.61721339574433 138.63670063589234,114.60009947614162 138.62087565107504,114.77123861665314 138.0037012398825,114.66855514711642 137.8454513908946,114.89103594183689 137.35487685899716,114.73701079840248 136.67440250824438,115.25042755587492 136.38955277996138,114.99371931547648 136.1047030517948,115.76384320647048 135.48752864060225,116.03766443420318 135.4084037161665,116.32859914377332 135.07607903319877,116.27725775026192 134.8387042597169,116.65376104558527 134.1107549542212,116.51685082520999 133.87338018073933,116.85912622851902 133.49358054308686,116.89335374180519 133.49358054308686,117.56078926750342 133.85755519580562,118.38224580830138 133.6676553770085,118.69029128065449 133.58853045257274,119.66576598137908 133.08213093568338,119.9909233271319 132.78145622252487,120.40164776096935 133.1296058903099,121.27443483125535 133.33533069409896,121.37711545279308 132.9871810262557,122.13010532484623 130.99323292879853,123.65319119818741 130.48683341190917,123.05422600537713 130.17033371387515,122.91731946413347 129.98043389501981,123.0028860616294 130.05955881957198,124.42328709013236 129.83800903096562,124.8511170654383 130.05955881957198,125.41585145625868 129.60063425742555,125.77522718968976 129.0942347406526,126.03192381023837 128.74608507280936,126.33995938973385 128.46123534458457,126.75067287612183 128.82520999730332,127.17849867149198 128.98345984629123,128.08548681657703 129.31578452925896,128.08548681657703 130.28110860817833,128.68443935891264 130.8033331099432,129.3347289855301 130.77168314013397,131.4738270766975 130.8191580948769,132.5176999720279 130.91410800424637,132.92840280826204 130.45518344215816,133.8353690636577 130.15450872894144,135.10169353170204 129.28413455939153,135.92308958807553 129.15753468021285,136.29956183422473 129.15753468021285,136.94983067661815 129.91713395551778,137.65143454256759 129.85383401584113,137.82255712334882 128.96763486147393,138.2674752581952 127.98648579756264,139.3455426782457 127.29018646193435,140.40649315530027 126.76796196016949,141.43321492595715 126.0558376396657,143.77754638771876 125.45448821334867,144.0" stroke="#ffff00" stroke-linecap="round" stroke-linejoin="round" stroke-width="0.5"><title>2023-03-12 21.7km</title></polyline><polyline fill="none" points="46.0,180.08398962244974 46.57019717700314,180.37369680442498 47.16366770822788,181.6710752306535 48.280788708128966,182.59057059431507 49.37463635386666,183.09440161193197 50.06120030168677,183.27074212383013 50.375390582950786,183.10699736868264 51.224868009914644,183.57303972891532 51.7252451244276,182.98103975999402 52.29544230148895,182.72912426940456 53.214739790942986,183.09440161193197 53.41256330133183,182.51499581597454 56.321732571930625,181.9859714496124 57.18284667597618,181.5955000534159 59.16108177998103,181.9607797730423 60.19674604025204,182.51499581597454 60.266566102800425,182.84248628526984 60.545846352761146,183.06921009563666 61.19750026933616,183.34631657430145 62.675358258828055,183.10699736868264 63.2106454045861,183.40929525795218 63.80411593581084,184.11465495951416 65.14233380020596,184.5177163638291 65.7125309772091,184.36656844649406 66.11981467512669,184.4799293968099 66.7947419459233,184.039080842369 67.86531623749761,184.01388946271618 69.6573645081371,183.43448672504746 69.94828143523773,183.6360183306242 69.7039112164639,184.08946359077527 72.1708867578418,186.96125616400968 73.637108070252,189.98414457611216 75.68516323674703,191.25626110377198 75.95280680962605,191.747471930983 77.34920805948786,192.3268470242474 79.11798297596397,192.3268470242474 80.29328736127354,192.0119694951427 83.24900334019912,191.67190112461685 84.28466760047013,191.344427251679 104.06701864022762,197.08772592885362 107.15073806699365,197.188483865335 110.05990733753424,198.49833173891238 127.4334662213223,193.1959060523077 127.53819631505758,193.03217062476324 127.36364615883213,192.98179046226142 128.28294364828616,192.8306498873717 132.96088783536106,188.39713469918934 132.89106777287088,188.245990147494 133.5194483352825,187.66660148459778 150.60209029196994,176.80900535712135 153.13888589589624,178.2071792495699 154.0,177.70333409540763 147.48346083395882,179.92024187164498 140.41999784501968,183.35891231281857 140.25708436587593,183.1447846335359 132.5303307833383,188.39713469918934 130.94774270011112,188.72461411143013 130.97101605427451,188.5482791197719 121.21948065940524,196.5587458066293 121.0332938261563,196.47058229679533 111.44467191031436,200.34973453923885 104.05538196308771,200.51346309212386 104.19502208812628,200.53865208660136 101.11130266130203,210.7398956244433 101.01820924470667,210.66433305182727 78.40814567398047,221.45685553055955 78.48960241349414,221.57019236302585 71.00721904967213,225.486564335195 70.87921560177347,225.63767660454323 70.92576231004205,229.7302507883578 71.33304600795964,229.4658104346163 71.78687641414581,229.9695060011436 71.91487986204447,231.6568755540502 71.70541967457393,232.52573858614778 65.54961749806534,238.67061740627105 64.15321624820353,241.44077890554036 64.42085982108256,241.7681587231491 50.9921344682225,243.1909946428932" stroke="#ff0000" stroke-linecap="round" stroke-linejoin="round" stroke-width="0.5"><title>2022-01-02 22.4km</title></polyline></svg>