<?xml version="1.0" encoding="utf-8" ?>
<svg baseProfile="full" height="300mm" version="1.1" viewBox="0,0,200,300" width="200mm" xmlns="http://www.w3.org/2000/svg" xmlns:ev="http://www.w3.org/2001/xml-events" xmlns:xlink="http://www.w3.org/1999/xlink"><defs /><rect fill="#222222" height="300" width="200" x="0" y="0" /><text fill="#FFFFFF" style="font-size:12px; font-family:Arial; font-weight:bold;" x="10" y="20">Over 10km Workouts</text><text fill="#FFFFFF" style="font-size:4px; font-family:Arial" x="10" y="280">ATHLETE</text><text fill="#FFFFFF" style="font-size:9px; font-family:Arial" x="10" y="290">WeiXU</text><text fill="#FFFFFF" style="font-size:4px; font-family:Arial" x="120" y="280">STATISTICS</text><text fill="#FFFFFF" style="font-size:3px; font-family:Arial" x="120" y="285">Number: 1</text><text fill="#FFFFFF" style="font-size:3px; font-family:Arial" x="120" y="290">Weekly: 1.0</text><text fill="#FFFFFF" style="font-size:3px; font-family:Arial" x="141" y="285">Total: 22.4 km</text><text fill="#FFFFFF" style="font-size:3px; font-family:Arial" x="141" y="290">Avg: 22.4 km</text><text fill="#FFFFFF" style="font-size:3px; font-family:Arial" x="167" y="285">Min: 22.4 km</text><text fill="#FFFFFF" style="font-size:3px; font-family:Arial" x="167" y="290">Max: 22.4 km</text><polyline fill="none" points="19.0,105.1259844336455 19.855295765504707,105.56054520662292 20.745501562254503,107.50661284595844 22.421183062135242,108.88585589145077 24.061954530712683,109.64160241789068 25.09180045244284,109.90611318573065 25.56308587436797,109.66049605300941 26.83730201481376,110.35955959337298 27.587867686641403,109.47155963997648 28.443163452204317,109.09368640408502 29.822109686385375,109.64160241789068 30.11884495196864,108.77249372393999 34.48259885783773,107.9789571743895 35.77427001396427,107.393250080102 38.74162266997155,107.94116965956346 40.295119060378056,108.77249372393999 40.399849154113326,109.26372942788294 40.818769529112615,109.60381514344772 41.796250404033344,110.01947486143035 44.01303738815477,109.66049605300941 44.81596810685005,110.11394288690644 45.706173903658055,111.1719824392494 47.71350070030894,111.77657454572909 48.56879646581365,111.54985266973381 49.17972201266093,111.71989409520756 50.19211291888496,111.05862126353895 51.7979743561591,111.02083419405972 54.48604676214745,110.15173008755664 54.922422152769286,110.45402749591449 54.55586682463763,111.13419538615562 58.2563301367918,115.44188424599997 60.45566210534889,119.97621686416096 63.52774485509144,121.88439165563614 63.92921021440998,122.62120789645996 66.02381208917359,123.49027053634927 68.67697446391685,123.49027053634927 70.43993104191031,123.01795424270676 74.87350501026958,122.50785168691073 76.42700140067609,122.01664087749668 106.10052796028322,130.63158889327315 110.72610710049048,130.78272579798067 115.08986100624315,132.7474976083613 141.15019933198346,124.79385907844699 141.30729447252816,124.5482559371303 141.0454692382482,124.47268569338485 142.42441547242925,124.24597483103571 149.4413317529834,117.59570204876945 149.33660165924812,117.36898522122647 150.27917250292376,116.49990222687484 175.9031354379258,100.21350803566747 179.70832884381525,102.31076887434756 181.0,101.55500114310416 171.22519125090912,104.88036280745291 160.62999676755862,110.03836846922059 160.385626548843,109.71717695028929 148.79549617494922,117.59570204876945 146.42161405016668,118.08692116712336 146.45652408141177,117.8224186796433 131.82922098907875,129.8381187099294 131.54994073917624,129.70587344517116 117.16700786550064,135.52460180883645 106.08307294460246,135.77019463817123 106.29253313213121,135.8079781298875 101.66695399198215,151.10984343665768 101.5273138670018,150.9964995777409 67.6122185109416,167.18528329582477 67.73440362024121,167.35528854452423 56.51082857447909,173.22984650278522 56.31882340257289,173.45651490680757 56.38864346506307,179.59537618252216 56.99956901191035,179.19871565191715 57.68031462118961,179.95425900169357 57.872319793037605,182.48531333106803 57.558129511831794,183.78860787920712 48.32442624709802,193.00592610938475 46.2298243722762,197.16116835830326 46.63128973165294,197.65223808470182 26.488201702362858,199.78649196433253" stroke="yellow" stroke-linecap="round" stroke-linejoin="round" stroke-width="0.5"><title>2022-01-02 22.4km</title></polyline></svg>