<?xml version="1.0" encoding="utf-8" ?>
<svg baseProfile="full" height="300mm" version="1.1" viewBox="0,0,200,300" width="200mm" xmlns="http://www.w3.org/2000/svg" xmlns:ev="http://www.w3.org/2001/xml-events" xmlns:xlink="http://www.w3.org/1999/xlink"><defs /><rect fill="#222222" height="300" width="200" x="0" y="0" /><text fill="#FFFFFF" style="font-size:12px; font-family:Arial; font-weight:bold;" x="10" y="20">Over 10km Hiking</text><text fill="#FFFFFF" style="font-size:4px; font-family:Arial" x="10" y="280">ATHLETE</text><text fill="#FFFFFF" style="font-size:9px; font-family:Arial" x="10" y="290">WeiXu</text><text fill="#FFFFFF" style="font-size:4px; font-family:Arial" x="120" y="280">STATISTICS</text><text fill="#FFFFFF" style="font-size:3px; font-family:Arial" x="120" y="285">Number: 4</text><text fill="#FFFFFF" style="font-size:3px; font-family:Arial" x="120" y="290">Weekly: 1.0</text><text fill="#FFFFFF" style="font-size:3px; font-family:Arial" x="141" y="285">Total: 72.3 km</text><text fill="#FFFFFF" style="font-size:3px; font-family:Arial" x="141" y="290">Avg: 18.1 km</text><text fill="#FFFFFF" style="font-size:3px; font-family:Arial" x="167" y="285">Min: 14.1 km</text><text fill="#FFFFFF" style="font-size:3px; font-family:Arial" x="167" y="290">Max: 22.4 km</text><polyline fill="none" points="88.50027609057724,65.38512505523977 89.66316951962654,65.55445092121954 89.99861954723019,65.36093563886243 90.49061292107217,65.23998853078228 91.63114301487803,65.26417795589077 91.89950303698424,65.36093563886243 92.54803975706454,65.48188270337414 92.8834897846682,65.60282972446294 94.27001656545326,66.37688962862012 94.58310325781349,66.30432158836629 94.47128658206202,66.4494576532743 94.35946990619414,66.35270028360537 94.15819988958538,66.42526831349824 94.06874654896092,66.57040432622307 94.15819988958538,66.71554027628736 94.15819988958538,66.90905477889464 93.97929320822004,66.95743338717148 94.29237990069669,66.95743338717148 94.35946990619414,67.03000128647545 94.47128658206202,67.15094775051693 94.5607399228029,67.39284054809832 94.76200993929524,67.61054391707876 94.73964660416823,67.6589224243653 94.87382661516313,67.85243638395332 95.03036996128503,67.87662562102196 95.34345665376168,68.36040999786928 95.5,69.66662433775491 95.34345665376168,69.86013714160072 94.89618995029014,70.27135148009984 94.73964660416823,70.22297334871837 94.4489232468186,70.27135148009984 94.13583655434195,70.12621706511709 92.86112644942477,70.4406748850015 92.72694643842988,71.02121162594995 92.59276642743498,71.09377864809358 92.41385974595323,71.40823556299438 92.2349530645879,71.57755839533638 92.12313638872001,71.96458169189282 91.98895637772512,72.23065994988428 91.63114301487803,72.54511580144754 90.24461623409297,72.20647102603107 89.28299282165244,71.84363695958746 88.12009939260315,72.42417127796216 86.84538928780239,73.56104808108648 86.64411927119363,73.65780337614706 86.50993926008232,73.65780337614706 85.41413583653048,73.05308232497191 85.10104914417025,72.6418713889143 84.60905577032827,72.20647102603107 83.06598564330488,71.79525905448827 82.77526228607167,71.91620380419772 82.57399226957932,72.13390424402314 82.52926559909247,72.47254909257754 81.97018221975304,74.09320185953402 81.79127553838771,74.79467600781936 81.79127553838771,76.68139231737587 81.70182219764683,77.26191828266019 81.72418553289026,77.69731209886959 81.50055218115449,79.14862074775738 81.23219215904828,79.6807656828023 80.82965212594718,80.23709812349989 80.22584207623731,81.49488981394097 79.24185532855336,82.31728952931007 78.86167863057926,82.48660686810035 78.6604086139705,82.80105312817614 78.5262286029756,83.38156852818793 78.41441192710772,83.50250911037438 78.05659856437705,83.47832099741208 77.76587520702742,83.30900415798533 77.40806184429675,83.26062790249125 76.87134180008434,83.52669722159044 76.60298177809455,83.52669722159044 75.79790171177592,83.81695442053024 75.48481501929928,83.84114250907442 75.30590833793394,83.67182585236151 75.19409166206606,83.35738040652359 75.14936499169562,82.6559241215582 75.2611816675635,81.85771346569527 75.17172832693905,81.59164282603888 75.14936499169562,81.25300716195488 74.54555494210217,80.79342964378884 74.00883489788976,80.57573481072905 73.87465488677844,79.4872585311241 74.27719491999596,78.93092484973022 74.5902816123562,78.2536478213442 74.63500828272663,77.98757432977436 74.81391496409196,77.62474650196964 74.76918829372153,77.431238167017 74.54555494210217,77.18935259175487 74.47846493660472,77.16516402471461 73.87465488677844,77.38286106591113 73.65102153515909,77.3586725127243 73.40502484817989,77.18935259175487 73.1590281612007,76.8023353094759 72.55521811160725,76.29437445028452 72.15267807838973,76.12505399342626 71.86195472115651,75.90735613784636 71.63832136942074,75.83479015465127 71.12396466033533,75.83479015465127 70.83324130321853,75.5687147489225 70.31888459413312,75.20588431088254 70.22943125339225,75.06075202612556 69.24544450582471,74.69792103994405 68.90999447822105,74.84305348136695 68.37327443389222,74.963997134706 67.72473771392833,75.5687147489225 67.009110988467,75.90735613784636 66.60657095524948,75.97992210532539 66.38293760351371,75.95573345129378 65.8462175593013,75.78641282377066 65.66731087793596,75.66546946630115 64.57150745438412,74.43184473452857 64.39260077301878,74.4076559691166 64.16896742128301,74.16576821863418 63.94533406954724,73.77874745588633 63.81115405855235,73.65780337614706 63.38625069020782,73.53685925292666 61.95499723905232,73.63361455497216 61.686637217062525,73.51267042304971 61.44064053008333,73.34334856527857 61.08282716735266,72.20647102603107 61.21700717834756,72.18228210048983 61.50773053558078,71.69850322339335 61.574820541078225,71.4566135237983 61.910270568798296,70.85188851339626 61.910270568798296,70.60999820465804 61.84318056318443,70.65837628033478 61.709000552189536,69.83594804722816 61.88790723355487,69.49730054294923 62.15626725566108,69.25540925958194 62.223357261158526,69.03770695571438 62.111540585407056,68.91676117046154 62.111540585407056,68.79581534169847 62.8495306459954,67.6347331716097 63.140254003345035,67.27189417107729 63.430977360578254,67.22351560808602 63.11789066810161,67.44121908672969 62.80480397574138,67.73149017227115 62.67062396463007,67.94919332195423 62.62589729425963,68.16689633068745 62.111540585407056,68.74743699797546 62.0668139149202,68.96513948979555 62.15626725566108,69.11027440600446 62.13390392041765,69.2795983957476 61.73136388743296,69.81175895105116 61.709000552189536,69.81175895105116 61.709000552189536,69.73919165227562 61.552457205951214,69.81175895105116 61.284097183845006,69.76338075357489 61.038100496982224,69.78756985318614 60.25538376590703,70.1504061386513 60.25538376590703,70.07783891289728 60.14356709003914,70.46486393586383 59.71866372169461,70.803510465601 59.092490336857736,70.94864458814845 58.935946990619414,70.9244555720652 58.667586968513206,70.27135148009984 58.53340695751831,70.10202798986575 58.19795692979824,69.93270441435743 58.19795692979824,70.00527167145628 57.54942020971794,69.25540925958194 57.54942020971794,69.01351780217374 57.37051352846902,68.94095033104531 57.39287686359603,68.16689633068745 57.57178354496136,67.68311167543288 57.527056874590926,67.39284054809832 57.63887355057523,67.12675846117781 57.57178354496136,67.05419058274128 57.43760353396647,67.10256917009247 57.45996686909348,66.71554027628736 57.59414688020479,66.59459365557996 57.728326891199686,66.2559428861423 57.66123688570224,65.6753979162022 57.527056874590926,65.55445092121954 57.303423522855155,65.19160967538483 57.05742683599237,64.94971529391478 57.25869685260113,64.05470456896 56.990336830494925,63.95794651002507 56.94561016012449,64.07889407937182 56.81143014912959,64.03051505677286 56.83379348437302,64.07889407937182 56.587796797277406,63.90956747010932 56.47598012140952,63.885377947532106 55.536720044212416,64.32078908744734 55.38017669785768,64.49011548954877 55.0,64.58687339531025 54.686913307523355,64.29659959446872 54.32909994479269,63.7402407755435 53.948923246818595,63.76443030856899 53.747653230209835,63.61929308436811 53.32274986198172,62.821037231216906 53.07675317500252,62.77265802770853 52.96493649913464,62.821037231216906 52.74130314751528,62.72427881715703 52.47294312529266,62.530761905538384 52.40585311979521,62.361434516409645 52.048039757064544,62.046969139017165 51.71258972946089,61.87764150623116 51.64549972396344,61.92602083858219 51.64549972396344,62.07115879387129 51.82440640532877,62.821037231216906 51.64549972396344,62.62752037527389 51.533683048095554,62.72427881715703 51.377139701740816,62.31305524674826 51.24295969074592,62.3856241487083 50.86278299277183,62.40981377920252 50.57205963553861,62.941985209618 50.37078961904626,62.77265802770853 49.163169519626535,62.79684763032128 48.20154610706959,62.434003407892305 47.508282716735266,61.97440016397741 47.48591938149184,62.11953809839906 47.5530093871057,62.09534844700829 47.41882937599439,62.11953809839906 47.28464936488308,62.24048632915947 47.10574268351775,62.28886560932733 46.3677526229294,61.99858982407022 46.03230259520933,61.99858982407022 45.58503589173779,61.87764150623116 45.31667586963158,61.99858982407022 44.60104914417025,61.80507249466609 43.840695748105645,61.756693144881865 43.59469906124286,61.65993442447507 43.1027056875173,61.34546839076211 42.70016565429978,61.44222720168182 42.588348978431895,61.272899264266016 42.498895637807436,61.32127868369571 42.476532302680425,61.563175676215906 42.364715626696125,61.87764150623116 42.02926559909247,61.90183117330889 41.60436223086435,61.80507249466609 41.29127553827129,61.78088282063254 40.933462175540626,61.58736536587821 40.75455549417529,61.756693144881865 40.7769188293023,61.68412410718156 40.7769188293023,61.73250346741406 40.15074544446543,61.87764150623116 40.12838210933842,61.80507249466609 40.061292103724554,61.829262166895205 39.88238542235922,61.73250346741406 39.1891220320249,61.90183117330889 39.01021535054315,61.853451837436296 38.719491993426345,61.97440016397741 38.42876863607671,61.87764150623116 38.316951960208826,61.756693144881865 38.02622860309202,61.80507249466609 37.7578685808694,61.99858982407022 36.48315847595222,62.57914114385494 35.96880176698323,62.62752037527389 35.94643843173981,62.74846842326224 35.96880176698323,62.651709988334915 35.901711761485785,62.72427881715703 35.74516841513105,62.74846842326224 35.5438983986387,63.23226018017158 35.34262838202994,63.40158713058918 35.11899503029417,64.00632554295589 35.253175041405484,64.29659959446872 35.297901711659506,64.70782073834562 35.09663169516716,65.31255680086906 34.96245168405585,65.82053425267804 34.850635008187965,65.69958730996586 34.96245168405585,65.65120852069231 35.6780784096336,66.30432158836629 35.74516841513105,66.30432158836629 35.74516841513105,66.35270028360537 35.74516841513105,66.28013223808375 35.767531750374474,66.35270028360537 35.991165102110244,66.37688962862012 36.013528437237255,66.47364699136233 36.14770844834857,66.57040432622307 36.4607951407088,66.69135095560341 36.59497515182011,66.78810822783271 36.81860850355588,67.44121908672969 36.930425179423764,67.41702981825802 36.952788514550775,67.46540835339692 37.04224185529165,67.90081485643168 37.19878520152997,68.11851789648063 37.26587520702742,68.33622079555062 37.08696852566209,69.69081344429287 36.88569850905333,69.90851532519446 37.064605190535076,69.83594804722816 37.22114853665698,69.4489223001292 37.33296521252487,69.32797666281112 37.578961899504066,69.4489223001292 38.003865267848596,69.54567877869704 38.13804527884349,69.69081344429287 38.4064053009497,70.53743107808987 38.33931529533584,70.46486393586383 38.33931529533584,70.34391866406077 38.33931529533584,70.51324203243712 38.384041965706274,70.46486393586383 38.47349530644715,70.77932143904036 38.607675317442045,70.9244555720652 38.9431253450457,71.6259363317804 38.92076200991869,71.6259363317804 38.9431253450457,71.60174736441695 38.87603533954825,71.79525905448827 38.89839867479168,71.96458169189282 38.78658199880738,72.01295957271941 38.74185532843694,72.20647102603107 38.83130866929423,72.47254909257754 38.96548868028913,72.61768249463057 38.98785201541614,73.00470459388453 38.9431253450457,72.98051572573604 38.92076200991869,72.98051572573604 39.01021535054315,72.88376023576711 38.9431253450457,72.85957135885837 38.96548868028913,72.93213798422948 39.01021535054315,72.90794911087141 38.96548868028913,72.85957135885837 38.98785201541614,72.88376023576711 38.98785201541614,72.90794911087141 38.85367200442124,73.22240432896069 38.87603533954825,73.41591508619604 38.85367200442124,73.41591508619604 38.83130866929423,73.73036982919439 38.92076200991869,74.16576821863418 38.92076200991869,74.09320185953402 38.96548868028913,74.18995700147934 38.89839867479168,74.11739064761787 38.9431253450457,74.18995700147934 38.96548868028913,74.14157943398459 38.96548868028913,74.16576821863418 38.87603533954825,74.14157943398459 38.92076200991869,74.26252333968296 38.87603533954825,74.2867121156014 39.01021535054315,74.4076559691166 39.14439536165446,75.6896581412293 39.12203202652745,75.93154479539953 39.16675869678147,76.05248805717565 38.384041965706274,76.41531758164638 38.33931529533584,76.48788343952037 38.22749861958437,76.46369482195587 38.04859193810262,76.75395811785711 37.7578685808694,76.85071249410976 37.48950855876319,77.57636942865793 37.355328547768295,77.62474650196964 36.99751518503763,77.89082028061966 36.930425179423764,78.13270535127958 36.617338487063535,78.32621328244568 36.48315847595222,78.51972110231873 36.438431805581786,78.73741726652952 36.28188845945988,78.88254796437104 36.17007178347558,79.12443232155056 36.05825510760769,79.12443232155056 35.991165102110244,78.3987787279475 35.6780784096336,77.98757432977436 35.58862506900914,77.93919730867492 35.5438983986387,77.96338582009776 35.454445058014244,78.54390957197757 35.364991717156954,78.56809803986107 34.984815019299276,79.12443232155056 34.96245168405585,79.8500843491347 35.09663169516716,80.33385149753303 35.253175041405484,80.57573481072905 35.34262838202994,81.27719543498824 35.16372170066461,81.80933700143942 35.20844837103505,81.73677229197347 34.89536167867482,81.83352523445501 34.67172832682263,81.66420756684965 34.40336830483284,81.59164282603888 33.508834897889756,81.7851487667067 33.307564881280996,81.90608992305351 32.860298177809455,81.95446637342684 32.21176145772915,82.5833595948061 32.03285477636382,82.82524128982914 31.384318056399934,83.21225164004136 31.272501380415633,83.50250911037438 31.451408061897382,83.76857823811588 30.46742131409701,84.95379270397825 29.505797901772894,85.24404867112753 29.371617890545167,85.43755251000402 29.21507454442326,86.28413049600204 28.432357813348062,86.71951263037045 27.85091109876521,87.85634110154933 27.470734400791116,88.07403122150572 26.822197680710815,88.72710073573398 26.732744340086356,88.72710073573398 26.777471010456793,88.60616203246173 26.732744340086356,88.70291299856035 26.62092766421847,88.60616203246173 26.218387631117366,87.51771174606984 25.99475427926518,86.16319091417245 25.815847598016262,84.32490391572355 25.055494202068076,83.16387537066475 24.541137493099086,82.07540746885934 23.959690778516233,81.32557197584538 23.534787410288118,80.50316983502125 23.37824406393338,80.33385149753303 23.244064052938484,80.28547481403803 22.796797349466942,79.24537443491863 22.752070679096505,78.93092484973022 22.237713970127515,78.47134415779146 21.432633903925307,78.35040176604525 21.25372722244356,78.22945933078881 21.27609055757057,78.18108234449755 20.851187189342454,77.45542671502335 20.582827167236246,76.874901083851 20.269740474876016,76.8023353094759 19.53175041405484,76.43950620264513 19.106847045826726,75.97992210532539 18.45831032586284,75.4961486926768 18.14522363326978,75.01237458389369 17.6532302594278,73.97225789292133 16.646880176616833,73.05308232497191 15.215626725461334,72.69024917218485 14.567090005497448,72.13390424402314 14.5,72.20647102603107 14.589453340740874,72.13390424402314 14.701270016492344,72.27903779235203 15.170900055207312,72.66606028142269 15.215626725461334,72.76281583408127 15.148536719963886,72.88376023576711 15.170900055207312,72.90794911087141 15.23799006070476,72.83538248031982 15.32744340132922,73.24659317970509 15.305080066202208,73.60942573208013 14.83545002748724,74.14157943398459 14.924903368228115,74.06901306967484" stroke="#4dd2ff" stroke-linecap="round" stroke-linejoin="round" stroke-width="0.5"><title>2023-04-16 14.1km</title></polyline><polyline fill="none" points="106.43135838158196,57.650662792206276 106.18554913299158,57.86604631904629 106.11531791905873,58.13210795739724 106.67716763005592,59.69046087060997 106.1621387283667,60.399950289560365 106.11531791905873,61.92027508767205 105.86950867052656,62.03429891592532 105.31936416187091,61.66688853710366 104.85115606937325,61.57820315787103 104.62875722546596,61.71756587653363 104.51170520234155,61.66688853710366 104.5,61.66688853710366 104.71069364162395,61.88226712847245 104.8394508670317,62.579078404814936 105.10867052024696,62.60441694452311 105.57687861268641,63.313894568171236 106.31430635839934,63.60528633168724 106.60693641623948,64.02336932014441 106.5015895953984,64.61881912774697 106.81763005780522,65.22693599248305 106.82933526014676,65.70836034759122 107.1804913294618,65.88572688197019 107.36777456646087,65.8477197825705 107.78916184970876,66.16444535914343 108.2807803468313,66.32914243281994 108.69046242779586,66.60786020496744 108.95968208095292,66.5951912249293 109.14696531789377,66.87390857412538 109.1820809248602,67.46934869914548 109.62687861273298,67.93809801312455 110.04826589592267,67.81140913293348 110.46965317922877,67.8367469162913 110.63352601160295,67.69738906247949 110.85592485551024,67.78607134589402 111.16026011563372,69.11630021395104 111.34754335257458,69.55970759371121 111.69869942200603,69.25565693985845 112.04985549132107,68.7108981996571 113.1852601155988,68.07745567556412 113.47789017338073,67.8240780250635 113.53641618497204,67.59603782652994 113.84075144515373,67.41867302254832 114.01632947975304,67.11461865542515 114.21531791903544,66.45583238419204 114.73034682084108,66.06309323690948 115.39754335262114,67.03860498123686 115.57312138727866,68.0141112972633 116.17008670524228,68.21681322723452 116.38078034686623,68.54620336354128 116.67341040464817,68.66022288195381 116.6265895953984,69.05295621100231 117.01286127173807,68.90093051057192 117.00115606939653,69.02761860341707 117.09479768789606,69.30633208544168 117.387427745678,68.98961218519253 117.51618497108575,69.12896901178465 117.65664739883505,68.98961218519253 117.99609826592496,69.14163780870149 118.33554913295666,69.10363141520065 118.23020231217379,68.82491761095298 117.87904624280054,68.54620336354128 117.75028901739279,68.11546229154919 117.92586705205031,67.8240780250635 118.62817919073859,67.5073554469709 118.65158959542168,67.54536218654539 118.65158959542168,67.5580310979276 118.83887283242075,67.46934869914548 119.22514450864401,67.48201761599921 119.1666184971109,67.81140913293348 119.62312138726702,68.20414436346618 120.03280346823158,68.12813116172038 120.79364161851117,68.55887220260047 121.1682080925093,68.41951492281805 122.02268786123022,69.05295621100231 122.17485549137928,69.2936633004283 122.1280346820713,69.78774523806351 121.55447976879077,69.87642646409222 121.33208092488348,70.05378878155898 121.27355491335038,70.34516934221028 121.05115606938489,70.26915706873115 120.8872832369525,69.87642646409222 120.41907514451304,70.78857361405971 120.57124277460389,71.1052902645315 121.20332369947573,71.56136123610486 122.08121387282154,71.84007069031941 122.52601156069431,71.70071601858945 122.67817919078516,71.33332589863858 123.13468208094127,70.8772543338564 124.05939306359505,70.77590493611933 124.49248554912629,70.56053727143444 124.63294797687558,70.33250063228479 125.45231213874649,69.97777638175467 125.7917630057782,69.63572017478873 126.43554913293337,69.28099451448361 126.73988439305685,69.04028740768263 126.84523121389793,68.7108981996571 127.04421965318033,68.59687871423375 127.27832369942917,68.00144241887028 127.79335260111839,67.34265948022949 128.46054913295666,67.013267082526 128.96387283236254,66.24045941238 129.75982658960856,65.5183245758817 130.16950867051492,65.32828859816073 130.40361271676375,65.35362674042699 130.46213872829685,65.22693599248305 130.68453757232055,65.23960507140146 130.9303468207945,64.99889241541678 130.96546242770273,65.02423060528236 131.14104046241846,64.87220141108264 131.45708092488348,64.87220141108264 131.5741329480079,64.59348087925173 131.94869942200603,64.41611303735408 132.3115606936626,64.44145131147525 133.02557803469244,64.34009819300263 133.38843930640724,64.06137681512337 133.6576589595643,64.03603848605417 133.9736994219711,64.22607586473168 134.21950867056148,64.70750296858023 134.68771676305914,65.11291424105002 134.65260115609271,65.34095766977407 134.75794797687558,65.48031739682483 135.06228323705727,65.55633174671675 135.42514450871386,65.87305784973432 135.436849710939,66.11376930534607 135.40173410403077,66.21512139830156 135.7177745664958,66.29113542953564 135.89335260121152,66.50650833909458 136.34985549136763,66.36714942783874 136.92341040464817,66.41782540838176 137.50867052021204,66.18978338052693 137.88323699421016,66.64586713958124 139.24104046239518,66.78522582928417 137.9183526011766,66.63319816227886 138.3982658959576,66.468501374271 139.4400289017358,66.64586713958124 139.84971098264214,66.468501374271 140.13063583819894,66.54451529566722 140.30621387285646,66.79789479557076 140.61054913292173,66.69654303953575 141.0202312138863,66.81056376095512 141.19580924860202,66.65853611596685 141.45332369941752,66.64586713958124 141.9800578034483,66.91191545101174 142.20245664741378,66.87390857412538 142.64725433522835,67.013267082526 142.9632947977516,66.91191545101174 143.6187861271901,67.16529441988678 143.7007225434063,67.32999055327673 143.46661849709926,67.36799733132648 144.02846820809646,67.43134194308368 144.88294797687558,67.98877353954595 145.29263005784014,68.0141112972633 146.1236994219944,68.77424232618068 146.34609826590167,69.26832572762214 146.8611271676491,69.34433843502484 146.73236994224135,69.38234477637161 147.43468208092963,69.43301988534222 147.63367052027024,69.92710143025033 148.0199421965517,70.04112005056231 148.09017341042636,70.19314476229192 148.72225433524,70.58587465749588 149.15534682082944,70.58587465749588 149.41286127170315,70.94059767767612 149.8810693642008,70.92792901075154 150.18540462426608,70.75056757756101 150.5014450867311,70.76323625730583 150.8408959537628,70.48452509136405 151.66026011563372,70.02845131861977 151.91777456644922,70.02845131861977 152.2455202311976,70.21848220143875 153.01806358381873,70.01578258578957 153.39263005781686,70.05378878155898 154.03641618497204,69.85108897549799 154.4226878612535,69.92710143025033 154.73872832371853,69.78774523806351 155.0430635837838,69.83842022983299 155.522976878623,70.18047604136518 155.78049132949673,70.16780731950712 155.99118497106247,69.88909520699235 156.4476878612768,69.90176394897571 156.91589595377445,70.20581348234555 157.78208092489513,70.42118158274388 158.32052023120923,70.34516934221028 158.91748554911464,70.04112005056231 159.16329479770502,70.14246987302613 159.67832369945245,70.1298011484323 160.35722543351585,70.40851287827536 160.9893063583877,70.43385028629564 161.31705202313606,70.61121203989023 161.5862716762931,70.56053727143444 162.52268786128843,71.00394099862024 162.88554913300322,71.35866317299951 163.5059248554753,71.46001223385974 163.70491329481592,71.59936709687463 164.0092485549394,71.56136123610486 164.46575144509552,71.32065726004657 164.87543352600187,71.3459945362556 165.14465317921713,71.53602399103693 165.4489884393406,72.22012832296605 165.8703757225303,72.56217948795529 166.05765895952936,72.99290963543172 166.36199421965284,73.03091518589645 166.6312138728099,73.3856332594878 167.23988439305685,73.55032354974537 167.76661849714583,73.61366592788545 167.7900289017125,73.52498659209232 168.19971098261885,73.98105126984592 168.4689306358341,74.0697303749912 168.70303468208294,74.62714086617052 168.70303468208294,74.61447246558964 168.92543352599023,74.57646725836094 169.24147398845525,74.75382482158602 169.76820809248602,74.84250353592506 170.65780346817337,75.32390148838749 172.36676300578984,75.24789137323387 172.60086705203867,75.133876138716 172.9754335259786,75.2732280819182 173.52557803469244,75.03252920135856 174.04060693638166,75.09587104407547 174.25130057806382,75.14654450175294 174.45028901734622,75.47592161985813 174.78973988443613,75.42524825733562 175.30476878612535,75.60260496205592 176.2177745664958,75.64060994687316 176.6742774566519,75.77996148740931 177.44682080921484,76.24868858377158 178.5588150289259,76.19801544457732 178.8163294797414,76.5780636317213 178.90997109829914,76.48938579505193 179.3196531792055,76.6034001482185 179.49523121392122,76.38803964111139 180.23265895957593,76.70474617771106 180.65404624276562,76.74275092364405 180.78280346817337,76.24868858377158 180.6774566473905,75.9066446099896 180.52528901735786,75.80529811924498 180.5369942196412,75.81796643379494 180.50187861273298,75.51392663210572 180.7359826589236,74.84250353592506 180.6189306358574,73.74035061550967 181.0403179191053,72.34681401745183 181.0403179191053,72.0300996096048 181.28612716763746,71.84007069031941 181.39147398842033,71.11795891866495 181.61387283232762,70.86458566236251 181.8011560693849,71.16863352597284 181.76604046247667,71.73872184913489 181.90650289016776,71.81473348550207 182.21083815029124,71.75139045747346 182.6790462427889,71.35866317299951 183.00679190753726,71.63737294937891 183.25260115606943,71.71338462970743 183.3813583815354,72.01743102140608 183.27601156069431,72.2708026117325 183.52182080922648,72.7268705516326 183.95491329481592,73.15760029456578 184.86791907518636,74.31043057719944 184.9615606936277,75.04519757171511 184.63381502893753,75.75462485192111 184.58699421962956,76.03332764103834 184.7157514450373,76.27402514789719 184.3177745664725,76.78075566136977 184.46994219656335,76.92010629588913 184.622109826596,77.33815753503586 184.69234104047064,77.92089396309166 184.92644508671947,78.13625258777756 184.99667630059412,78.4402878429828 185.14884393062675,78.47829221282154 185.20736994221807,79.12436524004443 185.47658959537512,79.18770560482517 185.5,79.28905014082557 185.37124277459225,79.94778819753265 185.1605491329683,80.50518000524607 184.70404624281218,80.64452768034243 184.2592485549394,81.18924934814277 184.142196531815,81.9239875224157 184.15390173415653,82.41803387449181 183.5569364161929,82.78540077261277 183.18236994219478,82.67139043829229 183.14725433522835,82.51937654391804 182.80780346819665,82.87407542583242 182.6790462427889,83.21610581122513 182.70245664741378,83.74815175172989 182.36300578038208,84.00150639427011 181.98843930632574,84.10284814881743 181.8011560693849,84.64755907638755 181.62557803466916,85.052924250238 181.297832369979,85.48362372105476 181.56705202313606,85.4202856299089 181.41488439310342,85.62296744108608 181.50852601154475,85.6736378572823 181.92991329479264,85.57229701023607 182.04696531791706,85.77497864577163 182.2810693641659,85.97766004710866 182.60881502891425,86.14233851328027 182.83121387287974,86.44635989080416 183.13554913300322,86.56036777152622 183.1004335260368,86.76304826539126 183.3813583815354,86.95306101576716 183.34624277456896,87.30775093239208 183.45158959541004,87.51043056277558 183.34624277456896,87.3204184161441 183.20578034681967,87.7764472222625 183.662283237034,88.44782080729783 183.7559248554753,89.04318768602388 183.25260115606943,90.4365916318784 182.6205202311976,90.89261233783327 182.37471098266542,90.87994511198485 182.30447976879077,90.98128289300075 180.78280346817337,91.56397399787966 179.50693641620455,91.91865459250403 179.56546242779586,92.18466456794704 179.4132947976468,92.34933720779372" stroke="#4dd2ff" stroke-linecap="round" stroke-linejoin="round" stroke-width="0.5"><title>2023-04-09 14.1km</title></polyline><polyline fill="none" points="25.476512543973513,193.6159406539664 25.73762479488505,193.3591599726933 26.295455512590706,191.80562896501215 26.80581127561163,190.86836817437143 27.731572892400436,189.50740537849197 27.9333414498833,188.8269200848008 28.087635052623227,188.8525988222682 28.111372530052904,188.76272322490695 38.29475031379843,184.75679344088712 38.50838760996703,184.82099174331233 38.947530940931756,184.6027174207411 39.3866742720129,184.6797554474615 39.99197994446149,184.5 40.20561724063009,184.55135871775565 40.13440480857389,184.9237089790986 40.478598230169155,185.1291432731232 40.91774156119209,185.73260514267895 40.953347777191084,186.0921133705997 41.51117849495495,186.18199031428958 41.92658434860641,186.46446041380113 41.99779678066261,186.63137435309181 42.460677588998806,186.47729995314148 42.75739605596755,186.9523622587294 43.39830794441514,186.70841150317574 43.80184505938087,186.96520176292688 44.490231902571395,187.0679177632701 44.775081630796194,187.2348311375972 45.17861874576192,187.78692810861685 45.237962439190596,188.22346868926252 45.42786225798773,187.87680419787648 45.72458072484005,188.184950445735 46.24680522666313,188.30050515137555 46.329886397346854,188.55729311794857 46.69781729625538,188.60865066687984 47.27938549139071,188.99383181233134 47.74226629972691,188.87827755608305 48.762977825826965,189.1350646905048 49.64126448787283,188.9167956498277 49.85490178404143,188.0822350889648 50.1634889896377,187.65853361676272 50.626369797973894,187.50446010449377 50.95869448088342,187.64569416247832 51.37410033453489,188.184950445735 51.825112404243555,188.28766574330803 52.83395519165788,188.32618396467296 53.13067365856841,187.94100137677742 53.85466671775794,188.3647021776851 54.839772027859,188.41605978208827 55.14835923345527,188.24914751363394 55.56376508710673,187.73557032296958 56.0859895888716,188.04371681492194 56.406445533037186,188.30050515137555 56.430183010408655,188.8525988222682 56.869326341489796,188.74988385017787 57.10670111491345,188.95531373523409 57.42715705919545,188.8525988222682 57.818825435475446,189.04518923553405 58.41226236929651,188.9167956498277 59.18373038317077,189.10938599368092 59.90772344247671,189.04518923553405 60.45368542155484,189.19926141633186 61.15394100337289,189.09654664392292 61.403184515598696,189.5330840179522 61.711771721136756,189.75135230415617 62.115308836102486,189.59728060048656 62.37642108701402,189.66147715985426 62.77995820197975,189.90542387476307 63.147889100946486,190.354798528424 63.57516369322548,190.2264058857836 63.81253846670734,190.41899481504515 64.22794432041701,190.52170882561768 64.80951251555234,190.354798528424 65.88956773502287,190.38047704586643 66.10320503124967,190.07233459259442 67.17139151203446,189.44320876362326 67.3968975468888,189.45604808842472 68.28705294750398,189.90542387476307 68.70245880121365,189.81554880806652 69.58074546320131,189.52024469869502 69.28402699629078,190.98392114086892 69.54513924720231,191.0481172009604 69.62822041788604,191.6643982022215 69.88933266879758,191.690076531042 69.94867636216804,191.9211813240545 70.29286978376331,191.93402047046402 70.81509428546997,191.70291569408437 72.26308040390722,191.88266387935437 72.67848625755869,191.690076531042 72.99894220184069,191.80562896501215 73.27192319137976,191.690076531042 73.49742922617588,191.75427233691153 73.60424787428929,191.98537704674527 73.87722886382835,192.1394466868951 74.01965372799896,192.7814020878577 73.90096634119982,193.26928664690058 74.07899742131121,193.42335517768515 74.12647237605415,193.8727209654753 74.42319084296469,194.1936958348524 74.42319084296469,194.39911944803316 74.99289029935608,194.51467012648936 75.12344642478274,195.63165615782782 74.89794038992841,196.1580494482332 75.20652759558288,196.6844411848433 75.2183963341522,197.27502518621623 75.57445849449141,197.3648964932072 76.29845155368093,198.03251049891696 76.8206760554458,198.6359286999359 76.891888487502,199.49611707395525 77.48532542126486,200.00966039412015 77.59214406937826,201.10093503988173 78.51790568610886,201.69150441673992 79.30124243866885,201.5246045736567 79.45553604146698,201.71718130179215 79.68104207632132,202.43613258308324 79.69291081494885,202.30774863825354 79.51487973483745,202.4874861351418 79.64543586026412,202.97534414230904 79.56235468958039,204.3618806671002 78.50603694736492,205.50448136977502 77.3547692958382,205.77408271563763 77.91260001366027,206.46734144825314 77.69896271743346,206.81396980425052 77.60401280800579,206.76261749771948 77.5684065920068,207.173435536155 77.81765010417439,206.64707475397154 77.48532542126486,207.37884420061891 76.48835137247806,208.16196256414696 77.18860695441253,208.89372579698102 77.34290055715246,209.24034943862353 77.2123444317258,209.25318733835593 77.23608190909727,209.5356208985031 76.9987071355572,209.75386470691592 76.5002201111638,209.88224329303193 76.2865828150534,210.3572432584915 75.98986434814287,210.60116166823718 76.08481425757054,210.92210643617727 75.94238939345814,211.3842658877984 76.07294551888481,211.1275107847032 75.79996452928754,211.6153451646387 75.43203363037901,211.60250743490178 75.15905264083995,211.87209956572042 74.95728408335708,211.8849372760742 74.39945336559322,212.4754709539411 74.36384714953601,212.97613928030478 73.84162264782935,213.2072164955316 73.85349138645688,213.6822076093522 74.44692832027795,214.25989780048258 74.35197841090849,214.27273533903644 74.49440327496268,214.6963735934114 74.13834111468168,215.0044735103147 72.70222373498837,215.13284831869532 72.52419265481876,215.45378493556927 74.50627201364841,219.47186252947722 72.55979887081776,215.5821594207082 72.4292427454493,215.9544449053501 71.83580581157003,216.14700605813414 72.03757436905289,216.32672961331264 72.64288004155969,216.3909165533987 72.98707346315496,216.71185090768267 73.24818571400829,216.75036299141357 74.19768480811035,220.51166979176924 73.24818571400829,216.78887506683532 73.28379193006549,216.78887506683532 72.97520472446922,216.72468826986733 72.90399229247123,217.1739953638753 73.41434805555036,218.2908395253471 73.07015463389689,218.85567758938123 73.40247931680642,219.1124215729651 73.66359156765975,219.13809595099883 73.82975390908541,219.35632801525935 73.88909760251408,220.33195045110187 73.24818571400829,220.8582708663016 72.98707346315496,221.833885091939 72.45298022276256,222.69396163108468 72.38176779070636,223.3614808646671 72.59540508687496,223.97765024914406 72.0019681530539,224.78636933841335 71.6459059928311,225.82614564077812 70.69640689872904,226.147063029508 70.58958825061563,226.5963464044471 70.32847599982051,226.84024262016464 69.84185771405464,226.99428216366505 69.29589573497651,227.34087065055792 68.25144673150498,227.57192926797143 68.37013411830412,227.73880475011538 67.81230340048205,227.76447788738005 67.62240358174313,228.04688215347414 67.38502880820306,228.0725552464428 67.36129133083159,228.40630511876952 67.77669718448306,228.6501988616801 68.04967817402212,228.53467028815066 68.14462808339158,228.77856385568157 68.07341565139359,229.24067706988717 68.47695276635932,229.343368732807 68.23957799281925,229.67711622941715 68.40574033436133,230.3061002001341 68.69059006252792,230.81955485997605 68.69059006252792,231.26882647597813 68.92796483600978,231.73093324445654 69.46205807646038,231.74376952648163 69.43832059908891,232.16736631645472 70.06736374890897,232.6936518373259 70.26913230639184,233.19426345419197 70.49463834124617,233.11724637371663 70.62519446667284,232.92470352721284 71.72898716345662,232.98888449912192 72.22747418796644,232.7449966831482 72.67848625755869,232.78350530780153 73.0345484178979,233.00172069073597 73.43808553286362,232.80917771965323 73.63985409034649,232.4497636180895 74.00778498925501,232.35990997965564 74.04339120531222,232.15453006484313 74.28076597879408,232.12885755889874 74.32824093353702,231.94914991380938 74.87420291261515,231.53838890293264 74.94541534461314,231.12762694706907 75.24213381152367,230.93508195489994 75.30147750495235,230.26759104111989 75.83557074534474,230.22908187379653 76.17976416694,229.81831690552644 77.16486947704107,229.75413479388226 77.18860695441253,229.39471454214072 77.3903755118954,229.2021676810691 78.30426838988205,229.24067706988717 78.37548082199646,229.52307900082087 78.66033055016305,229.60009763173002 78.82649289164692,230.12639072033926 79.01639271044405,230.2932638147322 79.43179856415372,229.72846194273734 79.71664829232031,230.1520635142224 79.75225450831931,230.58850044576684 79.88281063380418,230.63984589700704 80.45251009019557,230.78104581168736 80.98660333064618,230.7425367551332 80.98660333064618,231.3586806635285 81.15276567213004,231.53838890293264 81.9598399020615,233.3739698460704 81.9242336860043,233.60502065556648 82.22095215291483,234.5805652217823 82.2446896302863,234.7602702184231 82.48206440376816,235.17102381735458 82.2090834142291,235.6331204867165 82.3159020623425,236.0952159602166 82.07852728880243,236.51880242713378 82.16160845954437,236.8011928468477 82.41085197171196,237.01940331984952 82.48206440376816,237.3916440995963 82.22095215291483,238.7265701701981 82.76691413199296,238.93194252610556 82.96868268947583,239.1501503955078 83.0636325989035,239.53522245580098 83.03989512153203,239.90745799153228 83.37221980444156,239.90745799153228 83.74015070340829,240.15133602528658 83.95378799957689,240.94714624002518 83.81136313546449,241.11400922243774 84.06060664769029,241.47340588578663 84.02500043163309,241.92265069796122 84.16742529574549,241.96115734356863 84.15555655705975,242.9879981639533 84.35732511454262,243.23187199125823 84.52348745602649,243.24470744663267 84.45227502391208,243.46291004680097 83.97752547689015,243.45007460709894 83.96565673826262,243.5784289624862 83.50277592986822,243.50141636034823 83.3840885431855,243.66827695637767 83.01615764421877,243.55275809879822 82.50580188113963,243.9378206669062 82.29216458497103,243.7452894866001 82.07852728880243,244.3228824048565 81.61564648046624,244.5282483256451 81.55630278709577,244.74644935783 81.30705927486997,244.7079433126928 81.12902819475858,244.99032078418531 80.58306621562224,244.8876381189184 80.40503513551084,245.14434467139654 80.12018540728604,245.17001530635753 80.12018540728604,245.6705919506203 80.39316639682511,246.2866843562224 80.25074153271271,246.51771846049814 80.19139783940045,247.24932448603795 79.81159820174798,247.49319249534165 79.58609216689365,247.80123582071974 79.84720441774698,248.4558261234488 80.00149802054511,248.53283658959845 79.74038576969178,249.09757899363467 78.2449246965698,250.23989339864056 77.86512505891733,249.7906695040292 77.62775028537726,249.68798959809646 77.48532542126486,249.75216454622569 77.54466911463533,250.81746531759563 77.37850677320966,251.13833779907145 77.54466911463533,251.56188859220129 77.20047569304006,251.83142039226368 76.8206760554458,252.02394285767514 76.55956380453426,252.2549695422931 76.34592650842387,252.56300465708773 76.61890749796294,252.88387400361535 76.73759488464566,253.56411511242914 76.98683839687146,253.56411511242914 77.7108314561192,254.0133295191772 78.10249983239919,254.5010467391403 78.07876235502772,256.10537030751584 78.11436857114313,256.88827497902093 78.18558100314112,257.1963021061965 77.84138758160407,257.8765267977433 77.61588154669153,258.82627014876925 76.9631009195,259.4423171910603 76.86815101013053,259.7246713756758 76.86815101013053,260.21237300746725 77.43785046663834,260.7385759069293 77.3903755118954,260.86691784250434 76.72572614607634,261.20060644364276 75.98986434814287,262.0091570086952 75.467639846378,262.8048698664643 75.07597147009801,263.57491119447513 74.54187822970562,265.3331597907818 74.09086615999695,265.5" stroke="#ff1500" stroke-linecap="round" stroke-linejoin="round" stroke-width="0.5"><title>2023-03-12 21.7km</title></polyline><polyline fill="none" points="104.5,212.0487128176901 105.70638297859114,212.6616548441234 106.9620060789166,215.40655663146754 109.32553191483021,217.35196008210187 111.6398176291259,218.41793022069032 113.09240121569019,218.79101904080017 113.75714285706636,218.4445794345811 115.5544072947232,219.43059899660875 116.61306990869343,218.17808720824542 117.8194528875174,217.64510217751376 119.76443768979516,218.41793022069032 120.18297872331459,217.19206429537735 126.33799392089713,216.0727918460907 128.15987841936294,215.24666000079014 132.34528875374235,216.01949307325413 134.53647416399326,217.19206429537735 134.6841945287306,217.88494553675991 135.27507598767988,218.36463178691338 136.65379939205013,218.95091413383489 139.7805471123429,218.4445794345811 140.91306990874,219.08415999164572 142.16869300906546,220.57651030857232 144.99999999988358,221.4292792052438 146.20638297859114,221.10949110021465 147.06808510632254,221.349332205049 148.4960486321943,220.41661592075252 150.76109422487207,220.36331777609303 154.552583586541,219.13745832131826 155.16808510641567,219.56384468104807 154.65106382966042,220.52321218702127 159.8705167172011,226.599148404086 162.97264437680133,232.9947625422501 167.30577507603448,235.68621698598145 167.87203647417482,236.72548621561145 170.8264437689213,237.9512871823099 174.56869300897233,237.9512871823099 177.05531914893072,237.2850915103918 183.30881458963268,236.56559883250156 185.5,235.8727527045121" stroke="#ff0000" stroke-linecap="round" stroke-linejoin="round" stroke-width="0.5"><title>2022-01-02 22.4km</title></polyline></svg>