<?xml version="1.0" encoding="utf-8" ?>
<svg baseProfile="full" height="300mm" version="1.1" viewBox="0,0,200,300" width="200mm" xmlns="http://www.w3.org/2000/svg" xmlns:ev="http://www.w3.org/2001/xml-events" xmlns:xlink="http://www.w3.org/1999/xlink"><defs /><rect fill="#222222" height="300" width="200" x="0" y="0" /><text fill="#FFFFFF" style="font-size:12px; font-family:Arial; font-weight:bold;" x="10" y="20">Over 10km Workouts</text><text fill="#FFFFFF" style="font-size:4px; font-family:Arial" x="10" y="280">ATHLETE</text><text fill="#FFFFFF" style="font-size:9px; font-family:Arial" x="10" y="290">WeiXU</text><text fill="#FFFFFF" style="font-size:4px; font-family:Arial" x="120" y="280">STATISTICS</text><text fill="#FFFFFF" style="font-size:3px; font-family:Arial" x="120" y="285">Number: 4</text><text fill="#FFFFFF" style="font-size:3px; font-family:Arial" x="120" y="290">Weekly: 1.0</text><text fill="#FFFFFF" style="font-size:3px; font-family:Arial" x="141" y="285">Total: 72.3 km</text><text fill="#FFFFFF" style="font-size:3px; font-family:Arial" x="141" y="290">Avg: 18.1 km</text><text fill="#FFFFFF" style="font-size:3px; font-family:Arial" x="167" y="285">Min: 14.1 km</text><text fill="#FFFFFF" style="font-size:3px; font-family:Arial" x="167" y="290">Max: 22.4 km</text><polyline fill="none" points="91.86411874374608,69.79258545828634 92.46816291409777,69.88053874764591 92.64240642479854,69.78002069906506 92.89796357380692,69.71719688930898 93.4903915101313,69.72976165307045 93.6297863186337,69.78002069906506 93.96665710594971,69.84284448619292 94.14090061670868,69.9056682507653 94.86110712750815,70.30773980861704 95.02373440412339,70.27004563942319 94.9656532339286,70.34543396970548 94.90757206373382,70.2951750864595 94.80302595725516,70.33286925026914 94.75656102108769,70.40825755344122 94.80302595725516,70.48364582407521 94.80302595725516,70.5841634676326 94.71009608492022,70.60929286948522 94.87272336159367,70.60929286948522 94.90757206373382,70.64698696548294 94.9656532339286,70.70981044070504 95.01211817015428,70.83545732336643 95.11666427651653,70.94853944044735 95.10504804248922,70.97366878986941 95.17474544676952,71.07418615133793 95.25605908501893,71.08675081742695 95.41868636163417,71.33804394993058 95.5,72.01653360130149 95.41868636163417,72.11705036245985 95.18636168079684,72.33064828789793 95.10504804248922,72.30551913374802 94.95403699990129,72.33064828789793 94.79140972322784,72.25526081463613 94.12928438262315,72.4186002988863 94.05958697834285,72.72014971457247 93.98988957406254,72.75784335493518 93.8969597016694,72.92118236911483 93.80402982933447,73.00913408267661 93.74594865913969,73.21016640450398 93.67625125485938,73.34837599155435 93.4903915101313,73.51171445338696 92.77018499927362,73.33581148815574 92.27068693534238,73.14734382879396 91.66664276493248,73.44889198614692 91.004517424386,74.03942228600499 90.89997131796554,74.089680091638 90.83027391368523,74.089680091638 90.26107844541548,73.77556856900628 90.09845116880024,73.5619724108983 89.84289401985006,73.33581148815574 89.04137387068477,73.12221479219443 88.89036282803863,73.18503737694118 88.78581672167638,73.29811797253205 88.76258425350534,73.47402097575832 88.47217840241501,74.31584003812168 88.37924853008008,74.6802082247159 88.37924853008008,75.66022923047422 88.3327835938544,75.96177304895537 88.34439982793992,76.18793057116272 88.22823748749215,76.94178686346277 88.08884267893154,77.21820002204913 87.87975046609063,77.5071769473434 87.56611214688746,78.1605143204797 87.0549978488707,78.58769512774597 86.8575218701153,78.67564398777904 86.75297576369485,78.83897746750154 86.68327835941454,79.1405157980189 86.62519718916155,79.2033362180373 86.43933744443348,79.19077213582932 86.28832640184555,79.10282353516959 86.10246665717568,79.07769535543048 85.82367703999626,79.2159002993285 85.68428223149385,79.2159002993285 85.26609780587023,79.3666692043189 85.10347052919678,79.3792332738376 85.01054065686185,79.29128476808546 84.95245948660886,79.12795171131438 84.92922701849602,78.76359280351608 84.98730818874901,78.34897657010879 84.94084325258154,78.21077094027714 84.92922701849602,78.03487270775076 84.61558869929286,77.79615339457814 84.33679908217164,77.68307571132027 84.26710167789133,77.11768619681243 84.47619389073225,76.82870862704294 84.6388211674057,76.47690920112655 84.66205363546032,76.33870208992448 84.75498350785347,76.1502376711287 84.73175103974063,76.04972323124821 84.61558869929286,75.92408010009967 84.5807399971527,75.91151578203426 84.26710167789133,76.02459461227409 84.15093933750177,76.01203030139732 84.02316076296847,75.92408010009967 83.89538218849339,75.72305090226291 83.58174386923201,75.45919972889533 83.3726516563911,75.37124924921955 83.22164061386138,75.25816999595554 83.1054782733554,75.22047689527972 82.8383048902615,75.22047689527972 82.68729384773178,75.08226878978894 82.42012046469608,74.89380301514757 82.37365552847041,74.8184166483843 81.86254123051185,74.62995058902015 81.68829771981109,74.70533703715773 81.40950810263166,74.76815905241529 81.07263731537387,75.08226878978894 80.70091782591771,75.25816999595554 80.4918256130768,75.29586308849684 80.37566327262903,75.28329872524773 80.09687365556601,75.19534815693623 80.00394378317287,75.13252629536146 79.43474831496133,74.49174201620917 79.34181844256818,74.4791775951162 79.2256561020622,74.35353333406965 79.10949376167264,74.1525023283757 79.03979635739233,74.089680091638 78.8190879105241,74.02685783231573 78.0756489316118,74.07711564158672 77.93625412305119,74.01429337772424 77.80847554851789,73.92634217036539 77.62261580384802,73.33581148815574 77.69231320812833,73.32324698388402 77.84332425065804,73.07195670812507 77.8781729528564,72.94631143464358 78.05241646355717,72.63219785546244 78.05241646355717,72.50655226557865 78.01756776141701,72.5316813907848 77.94787035713671,72.10448577049829 78.04080022947164,71.92858138780866 78.18019503803225,71.8029352916783 78.2150437401724,71.68985372784664 78.15696256997762,71.62703060520289 78.15696256997762,71.56420745996002 78.54029829340288,70.96110411561676 78.69130933604902,70.77263389334257 78.84232037863694,70.74750451500586 78.6796931020217,70.86058668904298 78.51706582534825,71.01136280719948 78.44736842106795,71.12444481038256 78.42413595295511,71.2375267403404 78.15696256997762,71.53907819552114 78.13373010186478,71.65215985696705 78.18019503803225,71.72754759059171 78.16857880394673,71.81549990535132 77.95948659116402,72.09192117759085 77.94787035713671,72.09192117759085 77.94787035713671,72.05422739354253 77.86655671877088,72.09192117759085 77.72716191021027,72.06679198911297 77.59938333573518,72.0793565838103 77.19281514413888,72.26782539578562 77.19281514413888,72.23013164967415 77.13473397388589,72.43116486824874 76.91402552701766,72.60706874473544 76.58877097378718,72.6824560660898 76.50745733547956,72.66989151480084 76.36806252691895,72.33064828789793 76.29836512263864,72.24269623259897 76.12412161193788,72.15474413300399 76.12412161193788,72.19243789539905 75.78725082462188,71.8029352916783 75.78725082462188,71.67728910513688 75.69432095228694,71.63959523156518 75.70593718631426,71.2375267403404 75.7988670587074,70.98623346321983 75.77563459059456,70.83545732336643 75.83371576084755,70.6972457474476 75.7988670587074,70.6595516623056 75.7291696544271,70.68468105330248 75.74078588845441,70.48364582407521 75.81048329273472,70.4208222674788 75.88018069701502,70.24491618876345 75.84533199487487,69.94336249865592 75.77563459059456,69.88053874764591 75.65947225014679,69.69206735909393 75.5316936756135,69.56641965369636 75.63623978203395,69.10152235758142 75.49684497347334,69.0512631163001 75.47361250541871,69.11408716565347 75.40391510113841,69.08895754857804 75.41553133522393,69.11408716565347 75.28775276063243,69.02613349023159 75.22967159043765,69.01356867582945 74.74178976053372,69.23973519651918 74.66047612216789,69.32768876435875 74.4630001434125,69.37794792605564 74.30037286679726,69.22717039749841 74.11451312206918,68.93817977049912 73.91703714331379,68.95074459031457 73.81249103689333,68.87535565785947 73.5917825900251,68.4607159475272 73.46400401549181,68.4355862364755 73.40592284523882,68.4607159475272 73.28976050484926,68.41045652178582 73.15036569628865,68.30993762692378 73.11551699414849,68.22198354640568 72.92965724942042,68.05864013654354 72.75541373871965,67.97068592948199 72.7205650365795,67.9958157074434 72.7205650365795,68.07120501964528 72.81349490897264,68.4607159475272 72.7205650365795,68.36019708157983 72.66248386638472,68.41045652178582 72.58117022801889,68.1968538009969 72.51147282373859,68.23454841779312 72.3139968449832,68.24711328823469 72.16298580245348,68.52354020936764 72.05843969603302,68.4355862364755 71.43116305756848,68.44815109245246 70.93166499357903,68.25967815775948 70.5715617381502,68.02094548179593 70.55994550412288,68.09633478317119 70.59479420626303,68.08376990185934 70.52509680198273,68.09633478317119 70.45539939764421,68.15915917609527 70.36246952530928,68.18428892694646 69.97913380188402,68.03351036763343 69.80489029112505,68.03351036763343 69.5725656102295,67.97068592948199 69.4331708016689,68.03351036763343 69.06145131221274,67.93299125574413 68.66649935464375,67.90786146871687 68.53872078016866,67.8576018838503 68.28316363116028,67.69425813308044 68.07407141831936,67.74451776497881 68.01599024812458,67.65656339966517 67.96952531195711,67.68169322285394 67.9579090779298,67.80734228451911 67.89982790767681,67.97068592948199 67.72558439703425,67.9832508189138 67.50487595010782,67.93299125574413 67.34224867343437,67.92042636267433 67.1563889287645,67.81990718569432 67.06345905642956,67.90786146871687 67.07507529039867,67.87016678143118 67.07507529039867,67.89529657387175 66.74982073710999,67.97068592948199 66.73820450308267,67.93299125574413 66.70335580094252,67.9455561478826 66.61042592860758,67.89529657387175 66.25032267323695,67.9832508189138 66.15739280084381,67.9581210391334 66.00638175825588,68.02094548179593 65.85537071560975,67.97068592948199 65.79728954541497,67.90786146871687 65.64627850288525,67.93299125574413 65.50688369432464,68.03351036763343 64.84475835371995,68.33506735604897 64.57758497062605,68.36019708157983 64.56596873654053,68.42302137956722 64.57758497062605,68.37276194298465 64.5427362684859,68.41045652178582 64.46142263012007,68.42302137956722 64.35687652375782,68.67431834551098 64.25233041733736,68.76227219814609 64.13616807688959,69.0763927387452 64.2058654811699,69.22717039749841 64.22909794922452,69.44077185787319 64.12455184286227,69.7548911778722 64.05485443858197,70.01875097000448 63.99677326832898,69.9559272461338 64.05485443858197,69.93079775027581 64.42657392797992,70.27004563942319 64.46142263012007,70.27004563942319 64.46142263012007,70.2951750864595 64.46142263012007,70.25748091451533 64.47303886420559,70.2951750864595 64.58920120465336,70.30773980861704 64.60081743868068,70.35799868826871 64.67051484301919,70.40825755344122 64.83314211963443,70.47108111456328 64.90283952391474,70.5213399471977 65.01900186436251,70.86058668904298 65.07708303455729,70.84802200665581 65.0886992685846,70.87315137051337 65.13516420481028,71.0993154826574 65.2164778431179,71.21239742889884 65.25132654525805,71.32547930188593 65.15839667286491,72.02909819959314 65.05385056650266,72.14217954373453 65.1467804388958,72.10448577049829 65.22809407714522,71.90345217578579 65.2861752473982,71.84062912997615 65.4139538219315,71.90345217578579 65.63466226879973,71.95371059616446 65.70435967308003,72.02909819959314 65.84375448158244,72.46885857099551 65.80890577944228,72.43116486824874 14.5,60.519547227202565 65.80890577944228,72.3683420123125 65.80890577944228,72.45629400431062 65.83213824755512,72.43116486824874 65.87860318372259,72.59450418797496 65.9483005880029,72.66989151480084 66.12254409870366,73.03426313557429 14.5,60.519547227202565 66.11092786461813,73.03426313557429 66.12254409870366,73.02169860956201 66.0876953965635,73.12221479219443 66.09931163059082,73.21016640450398 66.04123046033783,73.23529542850156 66.01799799222499,73.33581148815574 66.06446292845067,73.47402097575832 66.13416033273097,73.54940792286652 66.1457765668165,73.75043962277414 66.12254409870366,73.73787514831929 73.04581958986819,87.52056032676774 66.11092786461813,73.73787514831929 66.15739280084381,73.68761724143405 66.12254409870366,73.67505276242446 66.13416033273097,73.71274619668839 66.15739280084381,73.70018171952688 66.13416033273097,73.67505276242446 14.906568191654515,72.11705036245985 66.1457765668165,73.68761724143405 73.7892585687805,88.92766482158913 66.1457765668165,73.70018171952688 66.07607916247798,73.86351985229703 66.0876953965635,73.96403555037978 14.5,60.519547227202565 66.07607916247798,73.96403555037978 66.06446292845067,74.12737343637855 66.11092786461813,74.35353333406965 66.11092786461813,74.31584003812168 66.13416033273097,74.36609776422847 66.09931163059082,74.3284044710017 66.12254409870366,74.36609776422847 66.13416033273097,74.34096890297951 73.98673454753589,89.48045277279743 66.13416033273097,74.35353333406965 66.0876953965635,74.34096890297951 66.11092786461813,74.40379104932072 66.0876953965635,74.41635547587066 66.15739280084381,74.4791775951162 66.22709020512411,75.1450906694663 66.2154739710968,75.2707343610382 66.23870643915143,75.33355617291818 65.83213824755512,75.52202147300704 65.80890577944228,75.55971450862125 65.7508246092475,75.54715016430418 65.65789473685436,75.697922236257 65.50688369432464,75.7481795646454 65.36748888570582,76.12510906657553 65.29779148142552,76.1502376711287 65.11193173675565,76.2884449314588 65.07708303455729,76.41408780049824 64.91445575800026,76.51460203062743 64.84475835371995,76.61511620295641 64.82152588554891,76.72819457764854 64.7402122472995,76.80358012011857 64.6821310770465,76.92922261856438 64.62404990679352,76.92922261856438 64.58920120465336,76.55229485203745 64.42657392797992,76.33870208992448 64.38010899187066,76.31357351249608 64.35687652375782,76.32613780166139 64.31041158759035,76.62768047043937 64.26394665136468,76.64024473697646 64.06647067260928,76.92922261856438 64.05485443858197,77.30614957166836 64.12455184286227,77.55743375515158 64.2058654811699,77.68307571132027 64.25233041733736,78.04743687309383 64.15940054500243,78.32384828191425 64.18263301311526,78.28615584284125 64.02000573644182,78.33641242646263 63.903843395994045,78.24846339561918 63.764448587433435,78.21077094027714 63.299799225642346,78.31128413646366 63.19525311922189,78.374104854709 62.962928438268136,78.39923313568579 62.62605765101034,78.72590045933612 62.5331277786172,78.85154157497163 62.1962569913012,79.05256717206794 62.13817582104821,79.2033362180373 62.23110569344135,79.34154106253118 61.719991395424586,79.95717949583195 61.220493331493344,80.10794776098919 61.15079592715483,80.20845986544737 61.06948228890542,80.6481996424991 60.662914097250905,80.87435109676153 60.360892012075055,81.46485629145172 60.163416033261456,81.57793152658269 59.826545245945454,81.91715679268236 59.780080309777986,81.91715679268236 59.803312777890824,81.85433734866092 59.780080309777986,81.90459290568833 59.721999139583204,81.85433734866092 59.51290692674229,81.28896133584203 59.39674458623631,80.58537974210049 59.303814713901374,79.63051447487669 58.90886275639059,79.02743898509652 58.641689373296686,78.46205382229527 58.339667288120836,78.0725652010733 58.118958841310814,77.64538313394587 58.03764520294499,77.55743375515158 57.96794779866468,77.5323053530883 57.73562311776914,76.9920438339177 57.7123906496563,76.82870862704294 57.4452172666206,76.5899876652984 57.02703284099698,76.52716630534269 56.93410296860384,76.46434492280241 56.94571920263115,76.43921636346204 56.72501075582113,76.06228753941832 56.58561594726052,75.76074389448331 56.422988670587074,75.72305090226291 56.039652947103605,75.53458581909945 55.818944500235375,75.29586308849684 55.48207371297758,75.04457565114717 55.319446436245926,74.7932878522115 55.06388928729575,74.25301786013006 54.54115875525167,73.77556856900628 53.797719776281156,73.58710138424067 53.460848988965154,73.29811797253205 53.42600028688321,73.33581148815574 53.472465223050676,73.29811797253205 53.53054639324546,73.37350499563036 53.774487308226526,73.57453689802787 53.797719776281156,73.62479483746574 53.76287107419921,73.68761724143405 53.774487308226526,73.70018171952688 53.80933601036668,73.6624882825563 53.855800946534146,73.87608431771514 53.84418471250683,74.06455119063321 53.60024379752576,74.34096890297951 53.64670873375144,74.30327560432488" stroke="#4dd2ff" stroke-linecap="round" stroke-linejoin="round" stroke-width="0.5"><title>2023-04-16 14.1km</title></polyline><polyline fill="none" points="127.78322784809279,38.35949918717233 127.60379746832768,38.51672007385787 127.55253164554597,38.710933843620296 127.9626582277997,39.848465716975625 127.58670886076288,40.366363056549744 127.55253164554597,41.476136010438495 127.37310126580996,41.559368593938416 126.97151898732409,41.29117451994534 126.62974683541688,41.22643793511088 126.46740506324568,41.32816683944111 126.38196202527615,41.29117451994534 163.75474683544599,111.64050081283494 126.3734177215083,41.29117451994534 126.52721518985345,41.44839180394047 126.62120253159082,41.95703463435348 126.81772151894984,41.975530699201045 127.15949367085705,42.49341942870524 127.69778481009416,42.70612312105368 127.91139240504708,43.01130606199149 127.83449367087451,43.44595929708885 128.06518987339223,43.88985894939833 128.07373417721828,44.24127841536392 128.33006329109776,44.37074850164208 128.4667721518781,44.34300492275361 128.7743670885975,44.57420122969779 129.1332278480695,44.69442314423941 129.43227848099195,44.89787535767391 129.62879746835097,44.888627536798595 129.7655063290731,45.09207944149239 129.79113924046396,45.52672560870269 130.11582278480637,45.86889282945049 130.42341772149666,45.77641529243556 130.73101265821606,45.79491080517619 130.8506329114025,45.693185451978934 131.0129746835155,45.757919777002826 131.23512658226537,46.72893072287843 131.3718354429875,47.052599400929466 131.6281645569543,46.830655252757424 131.88449367086287,46.43300435801211 132.71329113919637,45.97061804295663 132.9268987341202,45.78566304912965 132.96962025313405,45.61920332615409 133.19177215191303,45.48973450298945 133.3199367088091,45.267787644290365 133.4651898733864,44.786901463179674 133.84113924048143,44.50021845693118 134.32816455693683,45.212300869461615 134.45632911389112,45.924379319556465 134.8920886075939,46.07234317561233 135.04588607593905,46.312784076806565 135.25949367086287,46.39601351428428 135.22531645567506,46.682692273469 135.5072784810327,46.57171992674557 135.49873417720664,46.66419688903261 135.56708860758226,46.8676459708513 135.78069620250608,46.636453807368525 135.87468354424345,46.73817841075652 135.977215189836,46.636453807368525 136.22499999997672,46.747426097950665 136.47278481011745,46.71968303434551 136.39588607594487,46.51623371730966 136.1395569620072,46.312784076806565 136.0455696202407,45.998361268975714 136.1737341772241,45.78566304912965 136.68639240504126,45.55446893095359 163.75474683544599,111.64050081283494 136.70348101263517,45.58221224717272 163.75474683544599,111.64050081283494 136.70348101263517,45.59146001793124 136.8401898734155,45.52672560870269 137.12215189871495,45.535973383448436 137.07943037973018,45.77641529243556 137.41265822781133,46.06309543961106 137.71170886073378,46.00760900964087 138.2670886075648,46.32203179476346 138.5405063290964,46.220306860574055 139.16424050627393,46.682692273469 139.27531645569252,46.85839829233737 139.2411392404756,47.219057259462716 138.82246835439582,47.28379081263847 138.66012658225372,47.41325782075728 138.61740506329807,47.62595333549689 138.45506329112686,47.57046758312208 138.33544303794042,47.28379081263847 137.99367088606232,47.94961974489706 138.1047468354227,48.18080953617027 138.56613924048725,48.51372210192494 139.2069620252878,48.71716824360192 139.531645569572,48.61544521318865 139.64272151899058,48.34726592731022 139.97594936707173,48.014352928556036 140.6509493670892,47.940372144548746 140.96708860754734,47.783162836574775 141.06962025313987,47.61670571179275 141.66772151895566,47.35777197617426 141.91550632906728,47.10808537783305 142.38544303795788,46.849150613146776 142.60759493670776,46.673444581596414 142.68449367088033,46.43300435801211 142.82974683542852,46.349774944610544 143.00063291139668,45.915131572881364 143.3765822784335,45.43424782442162 143.863607594918,45.19380527250905 144.23101265818696,44.62968828123121 144.81202531643794,44.1025603204107 145.11107594933128,43.963842075070716 145.28196202529944,43.98233784979675 145.3246835442551,43.88985894939833 145.4870253164554,43.89910684245115 145.6664556961623,43.72339676023694 104.5,39.94094753851823 145.69208860755316,43.74189256972022 145.82025316453655,43.63091767268634 146.05094936705427,43.63091767268634 146.1363924050529,43.42746344480838 146.4098101265845,43.29799240409193 146.67468354429002,43.31648827507888 147.19588607593323,43.242504775102134 147.46075949366787,43.03904992963362 147.65727848099777,43.020554018548864 147.8879746835155,43.159273286524694 148.0674050632806,43.51069475895929 148.4091772151878,43.80662788189511 148.38354430379695,43.9730899627757 148.46044303794042,44.074816683372774 148.6825949367194,44.130303951431415 148.94746835442493,44.36150064266985 148.95601265819278,44.53720984866959 148.93037974680192,44.611192600066715 149.16107594934874,44.66667963552027 149.28924050633213,44.82389277203765 149.6224683544133,44.72216664694133 150.04113924052217,44.7591579745058 150.4683544303407,44.59269691620284 150.74177215187228,44.92561881626898 151.732911392377,45.02734477964259 150.76740506329224,44.91637099739455 151.1177215189673,44.79614929138188 151.87816455692519,44.92561881626898 152.17721518984763,44.79614929138188 152.3822784810327,44.85163624666893 152.51044303795788,45.036592590477085 152.73259493667865,44.9626100850146 153.0316455696011,45.04584040065674 153.1598101265845,44.93486663447402 153.34778481011745,44.92561881626898 153.7322784809803,45.119822857952386 153.89462025315152,45.09207944149239 154.2193037974357,45.19380527250905 154.45000000001164,45.119822857952386 154.928481012641,45.3047788141339 154.98829113924876,45.42500004230533 154.8174050632806,45.45274338661693 155.22753164556343,45.4989822804273 155.85126582277007,45.9058838255296 156.15031645569252,45.924379319556465 156.75696202530526,46.47924289763614 156.91930379741825,46.83990293327952 157.29525316454237,46.89538900239859 163.75474683544599,111.64050081283494 157.2012658227759,46.92313202794321 157.71392405059305,46.96012271929794 157.85917721519945,47.32078139975056 158.14113924046978,47.404010181671765 158.1924050632806,47.51498180669296 158.65379746834515,47.801658059310284 158.9699367088324,47.801658059310284 159.15791139239445,48.06059089682094 159.49968354430166,48.05134330451256 159.72183544299332,47.921876941887604 159.95253164556925,47.93112454355287 160.20031645568088,47.72767715238297 160.79841772149666,47.39476254190231 160.98639240502962,47.39476254190231 161.2256329113734,47.53347706817294 161.78955696203047,47.38551490147802 162.06297468353296,47.41325782075728 162.53291139239445,47.26529551506246 162.8148734176939,47.32078139975056 163.0455696202407,47.219057259462716 163.26772151896148,47.25604786528129 163.61803797463654,47.505734174963436 163.8060126581986,47.496486542549974 163.95981012654374,47.29303846041148 164.293037974654,47.30228610752238 164.6348101265612,47.524229437782196 165.267088607623,47.68143906381738 165.66012658228283,47.62595333549689 166.0958860759274,47.404010181671765 166.27531645566341,47.47799127570761 166.65126582278754,47.468743641300534 167.1468354430399,47.67219144410046 167.60822784810443,47.69068668285763 167.8474683544482,47.820153279360966 168.04398734174902,47.783162836574775 168.72753164556343,48.106828848402074 168.99240506329807,48.36576106851135 169.44525316453655,48.4397416066131 169.59050632908475,48.54146477665927 169.81265822783462,48.51372210192494 170.14588607591577,48.33801835568738 170.4449367088382,48.35651349823456 170.64145569619723,48.495226982100576 170.8636075949471,48.994594279247394 171.1712025316083,49.24427719715459 171.30791139238863,49.558692030550446 171.5300632911385,49.58643447877694 171.7265822784393,49.84536370549176 172.17088607593905,49.965580668416806 172.55537974683102,50.011817931786936 172.57246835439582,49.947085758401954 172.87151898731827,50.27999372992781 173.06803797464818,50.34472573494713 173.23892405061633,50.751611874075024 163.75474683544599,111.64050081283494 173.23892405061633,50.742364476187504 173.40126582275843,50.714622278508614 173.63196202530526,50.844085816221195 174.01645569616812,50.90881753597205 174.66582278479473,51.26021772911918 175.91329113923712,51.2047335522293 176.08417721517617,51.1215072417981 176.35759493667865,51.22322828050528 176.75917721519363,51.047528253773635 177.13512658225955,51.09376512630115 177.2889240506338,51.13075461228436 177.434177215182,51.37118601073598 177.68196202532272,51.33419659420906 178.05791139238863,51.463659505257965 178.72436708858004,51.49140154058841 179.0575949367194,51.59312228536146 179.62151898731827,51.935273288196186 180.43322784808697,51.898284034687094 180.62120253161993,52.175703175511444 180.68955696202465,52.11097209642321 180.988607594918,52.19419776349969 181.1167721519014,52.036993680252635 181.6550632911385,52.26817608883721 181.9626582278288,52.29591794978478 182.05664556959528,51.935273288196186 181.9797468353936,51.68559561957227 181.86867088606232,51.611616957547085 163.75474683544599,111.64050081283494 181.87721518985927,51.62086429264309 181.8515822784684,51.39892806609714 182.02246835440747,50.90881753597205 181.93702531643794,50.1042924084104 182.24462025315734,49.087069490837166 182.24462025315734,48.85588133658166 182.42405063289334,48.71716824360192 182.5009493670659,48.19005711915088 182.663291139208,48.00510533290071 182.80000000001746,48.22704744431394 182.7743670886266,48.643187865862274 182.87689873416093,48.698673153165146 183.0990506329108,48.652435415409855 183.440822784818,48.36576106851135 183.68006329113268,48.5692074453691 183.8594936708687,48.62469276475895 183.95348101266427,48.84663380173879 183.8765822784626,49.03158437189268 184.0560126581986,49.36449472464301 184.37215189871495,49.67890926273685 185.03860759493546,50.52042672643438 185.10696202531108,51.05677562960045 184.8677215189964,51.574627610512835 184.8335443037795,51.77806888696068 184.92753164554597,51.953767910948955 184.63702531642048,52.323659804751514 184.74810126583907,52.425379888176394 184.85917721517035,52.73053965345753 184.91044303795206,53.15591265790863 185.08132911392022,53.31311536706926 185.13259493670193,53.53504827487632 185.24367088606232,53.56278986130201 185.28639240507619,54.034395910704916 185.4829113924061,54.08063170440437 185.5,54.154608939541504 185.40601265823352,54.635459926088515 185.25221518985927,55.04233242707414 184.91898734177812,55.144050350252655 184.59430379746482,55.54167418371071 184.5088607594953,56.07800204931118 184.51740506329224,56.43863504049659 184.08164556961856,56.70679737540195 183.80822784805787,56.62357464191882 183.782594936667,56.5126109131088 183.5348101265845,56.771526130716666 183.440822784818,57.021193880391365 183.45791139241192,57.40956496776198 183.2101265822712,57.59450316674338 182.9367088607396,57.668478371539095 182.80000000001746,58.06609436508734 182.67183544303407,58.36199383798521 182.4325949367194,58.676386278697464 182.6291139240493,58.630152144658496 182.51803797468892,58.77810131484148 182.58639240506454,58.81508858066809 182.89398734178394,58.741114038311935 182.97943037972436,58.889063080292544 183.15031645569252,59.03701195130998 183.3895569620072,59.15722028315213 183.5518987341784,59.37914306083985 183.77405063292827,59.462364003302355 183.7484177215374,59.61031221190933 183.95348101266427,59.74901350226719 183.9278481012734,60.00792217558046 184.00474683544599,60.155869753878505 183.9278481012734,60.017168904232676 183.82531645568088,60.350050690976786 184.15854430379113,60.840125080059806 184.22689873416675,61.274717780557694 183.8594936708687,62.29184386761335 183.39810126580414,62.62471974158689 183.21867088606814,62.615473201200075 183.16740506328642,62.68944550548622 182.05664556959528,63.11478542592522 181.12531645569834,63.37368729456648 181.1680379746831,63.56786335259676 181.05696202529361,63.68806743146706" stroke="#4dd2ff" stroke-linecap="round" stroke-linejoin="round" stroke-width="0.5"><title>2023-04-09 14.1km</title></polyline><polyline fill="none" points="25.476512543973513,193.6159406539664 25.73762479488505,193.3591599726933 26.295455512590706,191.80562896501215 26.80581127561163,190.86836817437143 27.731572892400436,189.50740537849197 27.9333414498833,188.8269200848008 28.087635052623227,188.8525988222682 28.111372530052904,188.76272322490695 38.29475031379843,184.75679344088712 38.50838760996703,184.82099174331233 38.947530940931756,184.6027174207411 39.3866742720129,184.6797554474615 39.99197994446149,184.5 40.20561724063009,184.55135871775565 40.13440480857389,184.9237089790986 40.478598230169155,185.1291432731232 40.91774156119209,185.73260514267895 40.953347777191084,186.0921133705997 41.51117849495495,186.18199031428958 41.92658434860641,186.46446041380113 41.99779678066261,186.63137435309181 42.460677588998806,186.47729995314148 42.75739605596755,186.9523622587294 43.39830794441514,186.70841150317574 43.80184505938087,186.96520176292688 44.490231902571395,187.0679177632701 44.775081630796194,187.2348311375972 45.17861874576192,187.78692810861685 45.237962439190596,188.22346868926252 45.42786225798773,187.87680419787648 45.72458072484005,188.184950445735 46.24680522666313,188.30050515137555 46.329886397346854,188.55729311794857 46.69781729625538,188.60865066687984 47.27938549139071,188.99383181233134 47.74226629972691,188.87827755608305 48.762977825826965,189.1350646905048 49.64126448787283,188.9167956498277 49.85490178404143,188.0822350889648 50.1634889896377,187.65853361676272 50.626369797973894,187.50446010449377 50.95869448088342,187.64569416247832 51.37410033453489,188.184950445735 51.825112404243555,188.28766574330803 52.83395519165788,188.32618396467296 53.13067365856841,187.94100137677742 53.85466671775794,188.3647021776851 54.839772027859,188.41605978208827 55.14835923345527,188.24914751363394 55.56376508710673,187.73557032296958 56.0859895888716,188.04371681492194 56.406445533037186,188.30050515137555 56.430183010408655,188.8525988222682 56.869326341489796,188.74988385017787 57.10670111491345,188.95531373523409 57.42715705919545,188.8525988222682 57.818825435475446,189.04518923553405 58.41226236929651,188.9167956498277 59.18373038317077,189.10938599368092 59.90772344247671,189.04518923553405 60.45368542155484,189.19926141633186 61.15394100337289,189.09654664392292 61.403184515598696,189.5330840179522 61.711771721136756,189.75135230415617 62.115308836102486,189.59728060048656 62.37642108701402,189.66147715985426 62.77995820197975,189.90542387476307 63.147889100946486,190.354798528424 63.57516369322548,190.2264058857836 63.81253846670734,190.41899481504515 64.22794432041701,190.52170882561768 64.80951251555234,190.354798528424 65.88956773502287,190.38047704586643 66.10320503124967,190.07233459259442 67.17139151203446,189.44320876362326 67.3968975468888,189.45604808842472 68.28705294750398,189.90542387476307 68.70245880121365,189.81554880806652 69.58074546320131,189.52024469869502 69.28402699629078,190.98392114086892 69.54513924720231,191.0481172009604 69.62822041788604,191.6643982022215 69.88933266879758,191.690076531042 69.94867636216804,191.9211813240545 70.29286978376331,191.93402047046402 70.81509428546997,191.70291569408437 72.26308040390722,191.88266387935437 72.67848625755869,191.690076531042 72.99894220184069,191.80562896501215 73.27192319137976,191.690076531042 73.49742922617588,191.75427233691153 73.60424787428929,191.98537704674527 73.87722886382835,192.1394466868951 74.01965372799896,192.7814020878577 73.90096634119982,193.26928664690058 74.07899742131121,193.42335517768515 74.12647237605415,193.8727209654753 74.42319084296469,194.1936958348524 74.42319084296469,194.39911944803316 74.99289029935608,194.51467012648936 75.12344642478274,195.63165615782782 74.89794038992841,196.1580494482332 75.20652759558288,196.6844411848433 75.2183963341522,197.27502518621623 75.57445849449141,197.3648964932072 76.29845155368093,198.03251049891696 76.8206760554458,198.6359286999359 76.891888487502,199.49611707395525 77.48532542126486,200.00966039412015 77.59214406937826,201.10093503988173 78.51790568610886,201.69150441673992 79.30124243866885,201.5246045736567 79.45553604146698,201.71718130179215 79.68104207632132,202.43613258308324 79.69291081494885,202.30774863825354 79.51487973483745,202.4874861351418 79.64543586026412,202.97534414230904 79.56235468958039,204.3618806671002 78.50603694736492,205.50448136977502 77.3547692958382,205.77408271563763 77.91260001366027,206.46734144825314 77.69896271743346,206.81396980425052 77.60401280800579,206.76261749771948 77.5684065920068,207.173435536155 77.81765010417439,206.64707475397154 77.48532542126486,207.37884420061891 76.48835137247806,208.16196256414696 77.18860695441253,208.89372579698102 77.34290055715246,209.24034943862353 77.2123444317258,209.25318733835593 77.23608190909727,209.5356208985031 76.9987071355572,209.75386470691592 76.5002201111638,209.88224329303193 76.2865828150534,210.3572432584915 75.98986434814287,210.60116166823718 76.08481425757054,210.92210643617727 75.94238939345814,211.3842658877984 76.07294551888481,211.1275107847032 75.79996452928754,211.6153451646387 75.43203363037901,211.60250743490178 75.15905264083995,211.87209956572042 74.95728408335708,211.8849372760742 74.39945336559322,212.4754709539411 74.36384714953601,212.97613928030478 73.84162264782935,213.2072164955316 73.85349138645688,213.6822076093522 74.44692832027795,214.25989780048258 74.35197841090849,214.27273533903644 74.49440327496268,214.6963735934114 74.13834111468168,215.0044735103147 72.70222373498837,215.13284831869532 72.52419265481876,215.45378493556927 74.50627201364841,219.47186252947722 72.55979887081776,215.5821594207082 72.4292427454493,215.9544449053501 71.83580581157003,216.14700605813414 72.03757436905289,216.32672961331264 72.64288004155969,216.3909165533987 72.98707346315496,216.71185090768267 73.24818571400829,216.75036299141357 74.19768480811035,220.51166979176924 73.24818571400829,216.78887506683532 74.38758462690748,194.06530595642107 73.28379193006549,216.78887506683532 72.97520472446922,216.72468826986733 72.90399229247123,217.1739953638753 73.41434805555036,218.2908395253471 73.07015463389689,218.85567758938123 73.40247931680642,219.1124215729651 73.66359156765975,219.13809595099883 73.82975390908541,219.35632801525935 73.88909760251408,220.33195045110187 73.24818571400829,220.8582708663016 72.98707346315496,221.833885091939 72.45298022276256,222.69396163108468 72.38176779070636,223.3614808646671 72.59540508687496,223.97765024914406 72.0019681530539,224.78636933841335 71.6459059928311,225.82614564077812 70.69640689872904,226.147063029508 70.58958825061563,226.5963464044471 70.32847599982051,226.84024262016464 69.84185771405464,226.99428216366505 69.29589573497651,227.34087065055792 68.25144673150498,227.57192926797143 68.37013411830412,227.73880475011538 67.81230340048205,227.76447788738005 67.62240358174313,228.04688215347414 67.38502880820306,228.0725552464428 67.36129133083159,228.40630511876952 67.77669718448306,228.6501988616801 68.04967817402212,228.53467028815066 68.14462808339158,228.77856385568157 68.07341565139359,229.24067706988717 68.47695276635932,229.343368732807 68.23957799281925,229.67711622941715 68.40574033436133,230.3061002001341 68.69059006252792,230.81955485997605 68.69059006252792,231.26882647597813 68.92796483600978,231.73093324445654 69.46205807646038,231.74376952648163 69.43832059908891,232.16736631645472 70.06736374890897,232.6936518373259 70.26913230639184,233.19426345419197 70.49463834124617,233.11724637371663 70.62519446667284,232.92470352721284 71.72898716345662,232.98888449912192 72.22747418796644,232.7449966831482 72.67848625755869,232.78350530780153 73.0345484178979,233.00172069073597 73.43808553286362,232.80917771965323 73.63985409034649,232.4497636180895 74.00778498925501,232.35990997965564 74.04339120531222,232.15453006484313 74.28076597879408,232.12885755889874 74.32824093353702,231.94914991380938 74.87420291261515,231.53838890293264 74.94541534461314,231.12762694706907 75.24213381152367,230.93508195489994 75.30147750495235,230.26759104111989 75.83557074534474,230.22908187379653 76.17976416694,229.81831690552644 77.16486947704107,229.75413479388226 77.18860695441253,229.39471454214072 77.3903755118954,229.2021676810691 78.30426838988205,229.24067706988717 78.37548082199646,229.52307900082087 78.66033055016305,229.60009763173002 78.82649289164692,230.12639072033926 79.01639271044405,230.2932638147322 79.43179856415372,229.72846194273734 79.71664829232031,230.1520635142224 79.75225450831931,230.58850044576684 79.88281063380418,230.63984589700704 80.45251009019557,230.78104581168736 80.98660333064618,230.7425367551332 80.98660333064618,231.3586806635285 81.15276567213004,231.53838890293264 81.9598399020615,233.3739698460704 81.9242336860043,233.60502065556648 82.22095215291483,234.5805652217823 82.2446896302863,234.7602702184231 82.48206440376816,235.17102381735458 82.2090834142291,235.6331204867165 82.3159020623425,236.0952159602166 82.07852728880243,236.51880242713378 82.16160845954437,236.8011928468477 82.41085197171196,237.01940331984952 82.48206440376816,237.3916440995963 82.22095215291483,238.7265701701981 82.76691413199296,238.93194252610556 82.96868268947583,239.1501503955078 83.0636325989035,239.53522245580098 83.03989512153203,239.90745799153228 83.37221980444156,239.90745799153228 83.74015070340829,240.15133602528658 83.95378799957689,240.94714624002518 83.81136313546449,241.11400922243774 84.06060664769029,241.47340588578663 84.02500043163309,241.92265069796122 84.16742529574549,241.96115734356863 84.15555655705975,242.9879981639533 84.35732511454262,243.23187199125823 84.52348745602649,243.24470744663267 84.45227502391208,243.46291004680097 83.97752547689015,243.45007460709894 83.96565673826262,243.5784289624862 83.50277592986822,243.50141636034823 83.3840885431855,243.66827695637767 83.01615764421877,243.55275809879822 82.50580188113963,243.9378206669062 82.29216458497103,243.7452894866001 82.07852728880243,244.3228824048565 81.61564648046624,244.5282483256451 81.55630278709577,244.74644935783 81.30705927486997,244.7079433126928 81.12902819475858,244.99032078418531 80.58306621562224,244.8876381189184 80.40503513551084,245.14434467139654 80.12018540728604,245.17001530635753 80.12018540728604,245.6705919506203 80.39316639682511,246.2866843562224 80.25074153271271,246.51771846049814 80.19139783940045,247.24932448603795 79.81159820174798,247.49319249534165 79.58609216689365,247.80123582071974 79.84720441774698,248.4558261234488 80.00149802054511,248.53283658959845 79.74038576969178,249.09757899363467 78.2449246965698,250.23989339864056 77.86512505891733,249.7906695040292 77.62775028537726,249.68798959809646 77.48532542126486,249.75216454622569 77.54466911463533,250.81746531759563 77.37850677320966,251.13833779907145 77.54466911463533,251.56188859220129 77.20047569304006,251.83142039226368 76.8206760554458,252.02394285767514 76.55956380453426,252.2549695422931 76.34592650842387,252.56300465708773 76.61890749796294,252.88387400361535 76.73759488464566,253.56411511242914 76.98683839687146,253.56411511242914 77.7108314561192,254.0133295191772 78.10249983239919,254.5010467391403 78.07876235502772,256.10537030751584 78.11436857114313,256.88827497902093 78.18558100314112,257.1963021061965 77.84138758160407,257.8765267977433 77.61588154669153,258.82627014876925 76.9631009195,259.4423171910603 76.86815101013053,259.7246713756758 76.86815101013053,260.21237300746725 77.43785046663834,260.7385759069293 77.3903755118954,260.86691784250434 76.72572614607634,261.20060644364276 75.98986434814287,262.0091570086952 75.467639846378,262.8048698664643 75.07597147009801,263.57491119447513 74.54187822970562,265.3331597907818 74.09086615999695,265.5" stroke="#ff1500" stroke-linecap="round" stroke-linejoin="round" stroke-width="0.5"><title>2023-03-12 21.7km</title></polyline><polyline fill="none" points="104.5,202.56299221682275 104.92764788275235,202.78027260331146 105.37275078112725,203.75330642297922 106.21059153106762,204.4429279457254 107.03097726535634,204.82080120894534 107.54590022622142,204.95305659286532 107.78154293718399,204.8302480265047 108.41865100740688,205.1797797966865 108.7939338433207,204.73577981998824 109.22158172610216,204.5468432020425 109.91105484319269,204.82080120894534 110.05942247598432,204.38624686197 112.24129942891886,203.98947858719475 112.88713500698213,203.696625040051 114.37081133498577,203.97058482978173 115.14755953018903,204.38624686197 115.19992457705666,204.63186471394147 115.40938476455631,204.80190757172386 115.89812520201667,205.00973743071518 117.00651869407739,204.8302480265047 117.40798405342503,205.05697144345322 117.85308695182903,205.5859912196247 118.85675035015447,205.88828727286455 119.28439823290682,205.7749263348669 119.58986100633047,205.85994704760378 120.09605645944248,205.52931063176948 120.89898717807955,205.51041709702986 122.24302338107373,205.07586504377832 122.46121107638464,205.22701374795724 122.27793341231882,205.5670976930778 124.1281650683959,207.720942123 125.22783105267445,209.98810843208048 126.76387242754572,210.94219582781807 126.96460510720499,211.31060394822998 128.0119060445868,211.74513526817464 129.33848723195842,211.74513526817464 130.21996552095516,211.50897712135338 132.4367525051348,211.25392584345536 133.21350070033805,211.00832043874834 148.0502639801416,215.31579444663657 150.36305355024524,215.39136289899034 152.54493050312158,216.37374880418065 165.57509966599173,212.3969295392235 165.65364723626408,212.27412796856515 165.5227346191241,212.23634284669242 166.21220773621462,212.12298741551785 169.7206658764917,208.79785102438473 169.66830082962406,208.68449261061323 170.13958625146188,208.24995111343742 182.9515677189629,200.10675401783374 184.85416442190763,201.15538443717378 185.5,200.77750057155208 180.61259562545456,202.44018140372646 175.3149983837793,205.0191842346103 175.1928132744215,204.85858847514464 169.3977480874746,208.79785102438473 168.21080702508334,209.04346058356168 168.22826204070589,208.91120933982165 160.91461049453937,214.9190593549647 160.77497036958812,214.85293672258558 153.58350393275032,217.76230090441823 148.04153647230123,217.88509731908562 148.1462665660656,217.90398906494374 145.83347699599108,225.55492171832884 145.7636569335009,225.49824978887045 128.8061092554708,233.5926416479124 128.8672018101206,233.6776442722621 123.25541428723955,236.6149232513926 123.15941170128644,236.72825745340378 123.19432173253153,239.79768809126108 123.49978450595518,239.59935782595858 123.8401573105948,239.9771295008468 123.9361598965188,241.242656665534 123.7790647559159,241.89430393960356 119.16221312354901,246.50296305469237 118.1149121861381,248.58058417915163 118.31564486582647,248.8261190423509 108.24410085118143,249.89324598216626" stroke="#ff0000" stroke-linecap="round" stroke-linejoin="round" stroke-width="0.5"><title>2022-01-02 22.4km</title></polyline></svg>